<svg xmlns="http://www.w3.org/2000/svg" xmlns:xlink="http://www.w3.org/1999/xlink" width="1240" height="276" viewBox="0 0 1240 276">
  <defs>
    <clipPath id="clip-path">
      <rect id="Rectángulo_38038" data-name="Rectángulo 38038" width="1240" height="276" fill="none"/>
    </clipPath>
  </defs>
  <g id="img10" transform="translate(1311 7338)">
    <g id="Grupo_143564" data-name="Grupo 143564" transform="translate(-1311 -7338)">
      <rect id="Rectángulo_38037" data-name="Rectángulo 38037" width="1240" height="276" fill="#dcf8f9"/>
      <path id="Trazado_185239" data-name="Trazado 185239" d="M7.027,120.911H0L14.053,138.02,0,155.138H162.193l14.056-17.118-14.056-17.109Z" fill="#1565c0"/>
      <path id="Trazado_185240" data-name="Trazado 185240" d="M338.442,155.138H176.249L190.3,138.021l-14.053-17.11H338.442l14.055,17.11Z" fill="#4dd0e1"/>
      <path id="Trazado_185241" data-name="Trazado 185241" d="M514.69,155.138H352.5l14.053-17.117L352.5,120.911H514.69l14.055,17.11Z" fill="#1565c0"/>
      <path id="Trazado_185242" data-name="Trazado 185242" d="M690.938,155.138H528.745L542.8,138.021l-14.053-17.11H690.938l14.055,17.11Z" fill="#4dd0e1"/>
      <path id="Trazado_185243" data-name="Trazado 185243" d="M867.187,155.138H704.994l14.053-17.117-14.053-17.11H867.187l14.055,17.11Z" fill="#1565c0"/>
      <path id="Trazado_185244" data-name="Trazado 185244" d="M1043.435,155.138H881.242L895.3,138.021l-14.053-17.11h162.193l14.055,17.11Z" fill="#4dd0e1"/>
      <path id="Trazado_185245" data-name="Trazado 185245" d="M1219.684,155.138H1057.491l14.053-17.117-14.053-17.11h162.193l14.055,17.11Z" fill="#1565c0"/>
      <path id="Trazado_185418" data-name="Trazado 185418" d="M7.348,0H4.377V-9.457L1.459-8.6v-2.25L7.075-12.8h.272Zm9.694-4.948a3.128,3.128,0,0,1-2.145.861,3.463,3.463,0,0,1-2.76-1.178,4.64,4.64,0,0,1-1.02-3.146,4.722,4.722,0,0,1,.571-2.285,4.287,4.287,0,0,1,1.6-1.67,4.373,4.373,0,0,1,2.281-.615,4.245,4.245,0,0,1,2.29.637,4.29,4.29,0,0,1,1.6,1.8,6.189,6.189,0,0,1,.589,2.685v1.134a7.693,7.693,0,0,1-.831,3.674A5.734,5.734,0,0,1,16.849-.659a7.4,7.4,0,0,1-3.586.835h-.185V-2.2l.563-.009Q16.7-2.355,17.042-4.948ZM15.7-6.223a1.442,1.442,0,0,0,1.389-.835v-1.23a3.2,3.2,0,0,0-.413-1.819,1.3,1.3,0,0,0-1.116-.589,1.225,1.225,0,0,0-1.046.668,2.968,2.968,0,0,0-.422,1.617,2.661,2.661,0,0,0,.431,1.6A1.378,1.378,0,0,0,15.7-6.223Zm6.108-.028.782-6.546h7.479v2.3H25l-.29,2.542a3.493,3.493,0,0,1,.831-.327,3.79,3.79,0,0,1,1.006-.141,3.754,3.754,0,0,1,2.931,1.129A4.549,4.549,0,0,1,30.5-4.122a4.541,4.541,0,0,1-.549,2.228A3.776,3.776,0,0,1,28.406-.36,4.87,4.87,0,0,1,26.06.176,5.24,5.24,0,0,1,23.8-.32a4.052,4.052,0,0,1-1.652-1.361,3.308,3.308,0,0,1-.589-1.954H24.53a1.68,1.68,0,0,0,.448,1.114,1.423,1.423,0,0,0,1.063.412q1.494,0,1.494-2.21,0-2.044-1.828-2.044a1.824,1.824,0,0,0-1.547.667Zm10.424,0,.782-6.546h7.479v2.3H35.42l-.29,2.542a3.493,3.493,0,0,1,.831-.327,3.79,3.79,0,0,1,1.006-.141A3.754,3.754,0,0,1,39.9-7.291a4.549,4.549,0,0,1,1.024,3.168,4.541,4.541,0,0,1-.549,2.228A3.776,3.776,0,0,1,38.83-.36a4.87,4.87,0,0,1-2.347.536,5.24,5.24,0,0,1-2.259-.5,4.052,4.052,0,0,1-1.652-1.361,3.308,3.308,0,0,1-.589-1.954h2.971A1.68,1.68,0,0,0,35.4-2.522a1.423,1.423,0,0,0,1.063.412q1.494,0,1.494-2.21,0-2.044-1.828-2.044a1.824,1.824,0,0,0-1.547.667Z" transform="translate(60.038 98.714)" fill="#1565c0"/>
      <path id="Trazado_185419" data-name="Trazado 185419" d="M-46.635,0h-2.971V-9.457l-2.918.853v-2.25l5.616-1.942h.272Zm9.694-4.948a3.128,3.128,0,0,1-2.145.861,3.463,3.463,0,0,1-2.76-1.178,4.64,4.64,0,0,1-1.02-3.146,4.722,4.722,0,0,1,.571-2.285,4.287,4.287,0,0,1,1.6-1.67,4.373,4.373,0,0,1,2.281-.615,4.245,4.245,0,0,1,2.29.637,4.29,4.29,0,0,1,1.6,1.8,6.189,6.189,0,0,1,.589,2.685v1.134a7.693,7.693,0,0,1-.831,3.674A5.734,5.734,0,0,1-37.134-.659,7.4,7.4,0,0,1-40.72.176H-40.9V-2.2l.563-.009Q-37.283-2.355-36.94-4.948Zm-1.345-1.274A1.442,1.442,0,0,0-36.9-7.058v-1.23a3.2,3.2,0,0,0-.413-1.819,1.3,1.3,0,0,0-1.116-.589,1.225,1.225,0,0,0-1.046.668,2.968,2.968,0,0,0-.422,1.617,2.661,2.661,0,0,0,.431,1.6A1.378,1.378,0,0,0-38.285-6.223Zm11.769,1.274a3.128,3.128,0,0,1-2.145.861,3.463,3.463,0,0,1-2.76-1.178,4.64,4.64,0,0,1-1.02-3.146,4.722,4.722,0,0,1,.571-2.285,4.287,4.287,0,0,1,1.6-1.67,4.373,4.373,0,0,1,2.281-.615,4.245,4.245,0,0,1,2.29.637,4.29,4.29,0,0,1,1.6,1.8,6.189,6.189,0,0,1,.589,2.685v1.134a7.693,7.693,0,0,1-.831,3.674A5.734,5.734,0,0,1-26.71-.659,7.4,7.4,0,0,1-30.3.176h-.185V-2.2l.563-.009Q-26.859-2.355-26.517-4.948Zm-1.345-1.274a1.442,1.442,0,0,0,1.389-.835v-1.23a3.2,3.2,0,0,0-.413-1.819A1.3,1.3,0,0,0-28-10.7a1.225,1.225,0,0,0-1.046.668,2.968,2.968,0,0,0-.422,1.617,2.661,2.661,0,0,0,.431,1.6A1.378,1.378,0,0,0-27.861-6.223Zm13.087-6.759v2.329h-.132a4.447,4.447,0,0,0-2.729.8,3.358,3.358,0,0,0-1.314,2.21,3.464,3.464,0,0,1,2.531-.984,3.231,3.231,0,0,1,2.646,1.213,4.892,4.892,0,0,1,.984,3.182A4.48,4.48,0,0,1-13.364-2,4.108,4.108,0,0,1-14.972-.4a4.622,4.622,0,0,1-2.29.576A4.777,4.777,0,0,1-19.7-.444a4.26,4.26,0,0,1-1.67-1.771,5.832,5.832,0,0,1-.615-2.654V-6.056a7.387,7.387,0,0,1,.848-3.555,6.149,6.149,0,0,1,2.421-2.474,6.923,6.923,0,0,1,3.489-.9Zm-2.672,6.618a1.7,1.7,0,0,0-.984.272,1.73,1.73,0,0,0-.589.668v.888q0,2.426,1.679,2.426a1.362,1.362,0,0,0,1.129-.606,2.472,2.472,0,0,0,.453-1.521A2.426,2.426,0,0,0-16.22-5.77,1.476,1.476,0,0,0-17.446-6.363ZM2.758-5.08H-6.513V-7.4H2.758ZM15.152,0H12.182V-9.457L9.264-8.6v-2.25L14.88-12.8h.272Zm9.694-4.948a3.128,3.128,0,0,1-2.145.861,3.463,3.463,0,0,1-2.76-1.178,4.64,4.64,0,0,1-1.02-3.146,4.722,4.722,0,0,1,.571-2.285,4.287,4.287,0,0,1,1.6-1.67,4.373,4.373,0,0,1,2.281-.615,4.245,4.245,0,0,1,2.29.637,4.29,4.29,0,0,1,1.6,1.8,6.189,6.189,0,0,1,.589,2.685v1.134a7.693,7.693,0,0,1-.831,3.674A5.734,5.734,0,0,1,24.653-.659a7.4,7.4,0,0,1-3.586.835h-.185V-2.2l.563-.009Q24.5-2.355,24.847-4.948ZM23.5-6.223a1.442,1.442,0,0,0,1.389-.835v-1.23a3.2,3.2,0,0,0-.413-1.819,1.3,1.3,0,0,0-1.116-.589,1.225,1.225,0,0,0-1.046.668,2.968,2.968,0,0,0-.422,1.617,2.661,2.661,0,0,0,.431,1.6A1.378,1.378,0,0,0,23.5-6.223ZM35.271-4.948a3.128,3.128,0,0,1-2.145.861,3.463,3.463,0,0,1-2.76-1.178,4.64,4.64,0,0,1-1.02-3.146,4.722,4.722,0,0,1,.571-2.285,4.287,4.287,0,0,1,1.6-1.67,4.373,4.373,0,0,1,2.281-.615,4.245,4.245,0,0,1,2.29.637,4.29,4.29,0,0,1,1.6,1.8,6.189,6.189,0,0,1,.589,2.685v1.134a7.693,7.693,0,0,1-.831,3.674A5.734,5.734,0,0,1,35.077-.659a7.4,7.4,0,0,1-3.586.835h-.185V-2.2l.563-.009Q34.928-2.355,35.271-4.948ZM33.926-6.223a1.442,1.442,0,0,0,1.389-.835v-1.23a3.2,3.2,0,0,0-.413-1.819,1.3,1.3,0,0,0-1.116-.589,1.225,1.225,0,0,0-1.046.668,2.968,2.968,0,0,0-.422,1.617,2.661,2.661,0,0,0,.431,1.6A1.378,1.378,0,0,0,33.926-6.223Zm14.827-4.992L43.972,0H40.843l4.79-10.512h-6.1V-12.8h9.22Z" transform="translate(264 186)" fill="#1565c0"/>
      <path id="Trazado_185422" data-name="Trazado 185422" d="M7.348,0H4.377V-9.457L1.459-8.6v-2.25L7.075-12.8h.272Zm9.694-4.948a3.128,3.128,0,0,1-2.145.861,3.463,3.463,0,0,1-2.76-1.178,4.64,4.64,0,0,1-1.02-3.146,4.722,4.722,0,0,1,.571-2.285,4.287,4.287,0,0,1,1.6-1.67,4.373,4.373,0,0,1,2.281-.615,4.245,4.245,0,0,1,2.29.637,4.29,4.29,0,0,1,1.6,1.8,6.189,6.189,0,0,1,.589,2.685v1.134a7.693,7.693,0,0,1-.831,3.674A5.734,5.734,0,0,1,16.849-.659a7.4,7.4,0,0,1-3.586.835h-.185V-2.2l.563-.009Q16.7-2.355,17.042-4.948ZM15.7-6.223a1.442,1.442,0,0,0,1.389-.835v-1.23a3.2,3.2,0,0,0-.413-1.819,1.3,1.3,0,0,0-1.116-.589,1.225,1.225,0,0,0-1.046.668,2.968,2.968,0,0,0-.422,1.617,2.661,2.661,0,0,0,.431,1.6A1.378,1.378,0,0,0,15.7-6.223ZM27.466-4.948a3.128,3.128,0,0,1-2.145.861,3.463,3.463,0,0,1-2.76-1.178,4.64,4.64,0,0,1-1.02-3.146,4.722,4.722,0,0,1,.571-2.285,4.287,4.287,0,0,1,1.6-1.67A4.373,4.373,0,0,1,26-12.981a4.245,4.245,0,0,1,2.29.637,4.29,4.29,0,0,1,1.6,1.8,6.189,6.189,0,0,1,.589,2.685v1.134a7.693,7.693,0,0,1-.831,3.674A5.734,5.734,0,0,1,27.272-.659a7.4,7.4,0,0,1-3.586.835H23.5V-2.2l.563-.009Q27.123-2.355,27.466-4.948ZM26.121-6.223a1.442,1.442,0,0,0,1.389-.835v-1.23a3.2,3.2,0,0,0-.413-1.819A1.3,1.3,0,0,0,25.98-10.7a1.225,1.225,0,0,0-1.046.668,2.968,2.968,0,0,0-.422,1.617,2.661,2.661,0,0,0,.431,1.6A1.378,1.378,0,0,0,26.121-6.223ZM40.685-9.378a2.954,2.954,0,0,1-.461,1.644,3.361,3.361,0,0,1-1.27,1.143A3.7,3.7,0,0,1,40.4-5.366a3.164,3.164,0,0,1,.536,1.841A3.349,3.349,0,0,1,39.757-.817,4.909,4.909,0,0,1,36.5.176a5,5,0,0,1-3.287-1,3.325,3.325,0,0,1-1.2-2.7,3.2,3.2,0,0,1,.527-1.819,3.586,3.586,0,0,1,1.494-1.248,3.38,3.38,0,0,1-1.283-1.143,2.934,2.934,0,0,1-.466-1.644,3.284,3.284,0,0,1,1.134-2.637,4.558,4.558,0,0,1,3.059-.967,4.586,4.586,0,0,1,3.076.967A3.284,3.284,0,0,1,40.685-9.378ZM37.969-3.762a1.69,1.69,0,0,0-.409-1.217,1.423,1.423,0,0,0-1.077-.426,1.438,1.438,0,0,0-1.081.426,1.678,1.678,0,0,0-.413,1.217,1.693,1.693,0,0,0,.417,1.208,1.433,1.433,0,0,0,1.094.444,1.377,1.377,0,0,0,1.063-.439A1.723,1.723,0,0,0,37.969-3.762ZM36.475-10.7a1.1,1.1,0,0,0-.91.391,1.7,1.7,0,0,0-.312,1.085,1.8,1.8,0,0,0,.316,1.107,1.092,1.092,0,0,0,.932.422,1.047,1.047,0,0,0,.91-.422,1.856,1.856,0,0,0,.3-1.107A1.7,1.7,0,0,0,37.4-10.3,1.109,1.109,0,0,0,36.475-10.7Z" transform="translate(424.798 101.508)" fill="#1565c0"/>
      <path id="Trazado_185423" data-name="Trazado 185423" d="M7.348,0H4.377V-9.457L1.459-8.6v-2.25L7.075-12.8h.272Zm9.694-4.948a3.128,3.128,0,0,1-2.145.861,3.463,3.463,0,0,1-2.76-1.178,4.64,4.64,0,0,1-1.02-3.146,4.722,4.722,0,0,1,.571-2.285,4.287,4.287,0,0,1,1.6-1.67,4.373,4.373,0,0,1,2.281-.615,4.245,4.245,0,0,1,2.29.637,4.29,4.29,0,0,1,1.6,1.8,6.189,6.189,0,0,1,.589,2.685v1.134a7.693,7.693,0,0,1-.831,3.674A5.734,5.734,0,0,1,16.849-.659a7.4,7.4,0,0,1-3.586.835h-.185V-2.2l.563-.009Q16.7-2.355,17.042-4.948ZM15.7-6.223a1.442,1.442,0,0,0,1.389-.835v-1.23a3.2,3.2,0,0,0-.413-1.819,1.3,1.3,0,0,0-1.116-.589,1.225,1.225,0,0,0-1.046.668,2.968,2.968,0,0,0-.422,1.617,2.661,2.661,0,0,0,.431,1.6A1.378,1.378,0,0,0,15.7-6.223ZM27.466-4.948a3.128,3.128,0,0,1-2.145.861,3.463,3.463,0,0,1-2.76-1.178,4.64,4.64,0,0,1-1.02-3.146,4.722,4.722,0,0,1,.571-2.285,4.287,4.287,0,0,1,1.6-1.67A4.373,4.373,0,0,1,26-12.981a4.245,4.245,0,0,1,2.29.637,4.29,4.29,0,0,1,1.6,1.8,6.189,6.189,0,0,1,.589,2.685v1.134a7.693,7.693,0,0,1-.831,3.674A5.734,5.734,0,0,1,27.272-.659a7.4,7.4,0,0,1-3.586.835H23.5V-2.2l.563-.009Q27.123-2.355,27.466-4.948ZM26.121-6.223a1.442,1.442,0,0,0,1.389-.835v-1.23a3.2,3.2,0,0,0-.413-1.819A1.3,1.3,0,0,0,25.98-10.7a1.225,1.225,0,0,0-1.046.668,2.968,2.968,0,0,0-.422,1.617,2.661,2.661,0,0,0,.431,1.6A1.378,1.378,0,0,0,26.121-6.223ZM37.89-4.948a3.128,3.128,0,0,1-2.145.861,3.463,3.463,0,0,1-2.76-1.178,4.64,4.64,0,0,1-1.02-3.146,4.722,4.722,0,0,1,.571-2.285,4.287,4.287,0,0,1,1.6-1.67,4.373,4.373,0,0,1,2.281-.615,4.245,4.245,0,0,1,2.29.637,4.29,4.29,0,0,1,1.6,1.8A6.189,6.189,0,0,1,40.9-7.857v1.134a7.693,7.693,0,0,1-.831,3.674A5.734,5.734,0,0,1,37.7-.659,7.4,7.4,0,0,1,34.11.176h-.185V-2.2l.563-.009Q37.547-2.355,37.89-4.948ZM36.545-6.223a1.442,1.442,0,0,0,1.389-.835v-1.23a3.2,3.2,0,0,0-.413-1.819A1.3,1.3,0,0,0,36.4-10.7a1.225,1.225,0,0,0-1.046.668,2.968,2.968,0,0,0-.422,1.617,2.661,2.661,0,0,0,.431,1.6A1.378,1.378,0,0,0,36.545-6.223Z" transform="translate(591.866 189.596)" fill="#1565c0"/>
      <path id="Trazado_185426" data-name="Trazado 185426" d="M9.712,0H.782V-1.934L4.9-6.258A4.909,4.909,0,0,0,6.416-9.009a1.913,1.913,0,0,0-.36-1.257A1.287,1.287,0,0,0,5.01-10.7a1.3,1.3,0,0,0-1.1.576,2.366,2.366,0,0,0-.422,1.437H.519a4.2,4.2,0,0,1,.589-2.175,4.129,4.129,0,0,1,1.635-1.56,4.856,4.856,0,0,1,2.338-.562,4.777,4.777,0,0,1,3.195.958A3.42,3.42,0,0,1,9.4-9.272,4,4,0,0,1,9.114-7.8,6.456,6.456,0,0,1,8.24-6.3a22.029,22.029,0,0,1-1.912,2.1L4.676-2.285H9.712Zm10.38-5.229a6.11,6.11,0,0,1-1.165,4A4.024,4.024,0,0,1,15.645.176a4.046,4.046,0,0,1-3.3-1.415,6.1,6.1,0,0,1-1.169-3.99V-7.567a6.11,6.11,0,0,1,1.165-4,4.034,4.034,0,0,1,3.292-1.406,4.036,4.036,0,0,1,3.3,1.415,6.116,6.116,0,0,1,1.169,4ZM17.13-7.945a4.564,4.564,0,0,0-.36-2.061,1.2,1.2,0,0,0-1.143-.681,1.176,1.176,0,0,0-1.112.633,4.3,4.3,0,0,0-.374,1.916v3.27a4.6,4.6,0,0,0,.36,2.1,1.209,1.209,0,0,0,1.143.664,1.193,1.193,0,0,0,1.116-.646,4.39,4.39,0,0,0,.369-2.026ZM30.516-5.229a6.11,6.11,0,0,1-1.165,4A4.024,4.024,0,0,1,26.068.176a4.046,4.046,0,0,1-3.3-1.415,6.1,6.1,0,0,1-1.169-3.99V-7.567a6.11,6.11,0,0,1,1.165-4,4.034,4.034,0,0,1,3.292-1.406,4.036,4.036,0,0,1,3.3,1.415,6.116,6.116,0,0,1,1.169,4ZM27.554-7.945a4.564,4.564,0,0,0-.36-2.061,1.2,1.2,0,0,0-1.143-.681,1.176,1.176,0,0,0-1.112.633,4.3,4.3,0,0,0-.374,1.916v3.27a4.6,4.6,0,0,0,.36,2.1,1.209,1.209,0,0,0,1.143.664,1.193,1.193,0,0,0,1.116-.646,4.39,4.39,0,0,0,.369-2.026Zm4.676,1.694.782-6.546h7.479v2.3H35.42l-.29,2.542a3.493,3.493,0,0,1,.831-.327,3.79,3.79,0,0,1,1.006-.141A3.754,3.754,0,0,1,39.9-7.291a4.549,4.549,0,0,1,1.024,3.168,4.541,4.541,0,0,1-.549,2.228A3.776,3.776,0,0,1,38.83-.36a4.87,4.87,0,0,1-2.347.536,5.24,5.24,0,0,1-2.259-.5,4.052,4.052,0,0,1-1.652-1.361,3.308,3.308,0,0,1-.589-1.954h2.971A1.68,1.68,0,0,0,35.4-2.522a1.423,1.423,0,0,0,1.063.412q1.494,0,1.494-2.21,0-2.044-1.828-2.044a1.824,1.824,0,0,0-1.547.667Z" transform="translate(770.814 107.118)" fill="#1565c0"/>
      <path id="Trazado_185427" data-name="Trazado 185427" d="M9.712,0H.782V-1.934L4.9-6.258A4.909,4.909,0,0,0,6.416-9.009a1.913,1.913,0,0,0-.36-1.257A1.287,1.287,0,0,0,5.01-10.7a1.3,1.3,0,0,0-1.1.576,2.366,2.366,0,0,0-.422,1.437H.519a4.2,4.2,0,0,1,.589-2.175,4.129,4.129,0,0,1,1.635-1.56,4.856,4.856,0,0,1,2.338-.562,4.777,4.777,0,0,1,3.195.958A3.42,3.42,0,0,1,9.4-9.272,4,4,0,0,1,9.114-7.8,6.456,6.456,0,0,1,8.24-6.3a22.029,22.029,0,0,1-1.912,2.1L4.676-2.285H9.712Zm10.38-5.229a6.11,6.11,0,0,1-1.165,4A4.024,4.024,0,0,1,15.645.176a4.046,4.046,0,0,1-3.3-1.415,6.1,6.1,0,0,1-1.169-3.99V-7.567a6.11,6.11,0,0,1,1.165-4,4.034,4.034,0,0,1,3.292-1.406,4.036,4.036,0,0,1,3.3,1.415,6.116,6.116,0,0,1,1.169,4ZM17.13-7.945a4.564,4.564,0,0,0-.36-2.061,1.2,1.2,0,0,0-1.143-.681,1.176,1.176,0,0,0-1.112.633,4.3,4.3,0,0,0-.374,1.916v3.27a4.6,4.6,0,0,0,.36,2.1,1.209,1.209,0,0,0,1.143.664,1.193,1.193,0,0,0,1.116-.646,4.39,4.39,0,0,0,.369-2.026ZM30.516-5.229a6.11,6.11,0,0,1-1.165,4A4.024,4.024,0,0,1,26.068.176a4.046,4.046,0,0,1-3.3-1.415,6.1,6.1,0,0,1-1.169-3.99V-7.567a6.11,6.11,0,0,1,1.165-4,4.034,4.034,0,0,1,3.292-1.406,4.036,4.036,0,0,1,3.3,1.415,6.116,6.116,0,0,1,1.169,4ZM27.554-7.945a4.564,4.564,0,0,0-.36-2.061,1.2,1.2,0,0,0-1.143-.681,1.176,1.176,0,0,0-1.112.633,4.3,4.3,0,0,0-.374,1.916v3.27a4.6,4.6,0,0,0,.36,2.1,1.209,1.209,0,0,0,1.143.664,1.193,1.193,0,0,0,1.116-.646,4.39,4.39,0,0,0,.369-2.026ZM40.685-9.378a2.954,2.954,0,0,1-.461,1.644,3.361,3.361,0,0,1-1.27,1.143A3.7,3.7,0,0,1,40.4-5.366a3.164,3.164,0,0,1,.536,1.841A3.349,3.349,0,0,1,39.757-.817,4.909,4.909,0,0,1,36.5.176a5,5,0,0,1-3.287-1,3.325,3.325,0,0,1-1.2-2.7,3.2,3.2,0,0,1,.527-1.819,3.586,3.586,0,0,1,1.494-1.248,3.38,3.38,0,0,1-1.283-1.143,2.934,2.934,0,0,1-.466-1.644,3.284,3.284,0,0,1,1.134-2.637,4.558,4.558,0,0,1,3.059-.967,4.586,4.586,0,0,1,3.076.967A3.284,3.284,0,0,1,40.685-9.378ZM37.969-3.762a1.69,1.69,0,0,0-.409-1.217,1.423,1.423,0,0,0-1.077-.426,1.438,1.438,0,0,0-1.081.426,1.678,1.678,0,0,0-.413,1.217,1.693,1.693,0,0,0,.417,1.208,1.433,1.433,0,0,0,1.094.444,1.377,1.377,0,0,0,1.063-.439A1.723,1.723,0,0,0,37.969-3.762ZM36.475-10.7a1.1,1.1,0,0,0-.91.391,1.7,1.7,0,0,0-.312,1.085,1.8,1.8,0,0,0,.316,1.107,1.092,1.092,0,0,0,.932.422,1.047,1.047,0,0,0,.91-.422,1.856,1.856,0,0,0,.3-1.107A1.7,1.7,0,0,0,37.4-10.3,1.109,1.109,0,0,0,36.475-10.7Z" transform="translate(945.582 189.596)" fill="#1565c0"/>
      <text id="_2009" data-name="2009" transform="translate(1119.646 107.118)" fill="#1565c0" font-size="18" font-family="Roboto-Black, Roboto" font-weight="800"><tspan x="0" y="0">2009</tspan></text>
      <g id="Grupo_143563" data-name="Grupo 143563">
        <g id="Grupo_143562" data-name="Grupo 143562" clip-path="url(#clip-path)">
          <path id="Trazado_185246" data-name="Trazado 185246" d="M94.036,138a5.912,5.912,0,1,1-5.912-5.912A5.912,5.912,0,0,1,94.036,138" fill="#f2f2f2"/>
          <line id="Línea_175" data-name="Línea 175" y1="42.059" transform="translate(88.124 143.912)" fill="none" stroke="#b3b3b3" stroke-miterlimit="10" stroke-width="1"/>
          <path id="Trazado_185247" data-name="Trazado 185247" d="M449.488,138a5.911,5.911,0,1,1-5.912-5.912A5.912,5.912,0,0,1,449.488,138" fill="#f2f2f2"/>
          <line id="Línea_176" data-name="Línea 176" y1="42.059" transform="translate(443.577 143.912)" fill="none" stroke="#b3b3b3" stroke-miterlimit="10" stroke-width="1"/>
          <path id="Trazado_185248" data-name="Trazado 185248" d="M801.985,138a5.911,5.911,0,1,1-5.912-5.912A5.912,5.912,0,0,1,801.985,138" fill="#f2f2f2"/>
          <line id="Línea_177" data-name="Línea 177" y1="42.059" transform="translate(796.074 143.912)" fill="none" stroke="#b3b3b3" stroke-miterlimit="10" stroke-width="1"/>
          <path id="Trazado_185249" data-name="Trazado 185249" d="M1151.526,138a5.911,5.911,0,1,1-5.912-5.912,5.912,5.912,0,0,1,5.912,5.912" fill="#f2f2f2"/>
          <line id="Línea_178" data-name="Línea 178" y1="42.059" transform="translate(1145.615 143.912)" fill="none" stroke="#b3b3b3" stroke-miterlimit="10" stroke-width="1"/>
          <path id="Trazado_185250" data-name="Trazado 185250" d="M270.284,138a5.911,5.911,0,1,1-5.912-5.912A5.912,5.912,0,0,1,270.284,138" fill="#f2f2f2"/>
          <line id="Línea_179" data-name="Línea 179" y1="42.06" transform="translate(264.373 90.028)" fill="none" stroke="#b3b3b3" stroke-miterlimit="10" stroke-width="1"/>
          <path id="Trazado_185251" data-name="Trazado 185251" d="M628.693,138a5.911,5.911,0,1,1-5.912-5.912A5.912,5.912,0,0,1,628.693,138" fill="#f2f2f2"/>
          <line id="Línea_180" data-name="Línea 180" y1="42.06" transform="translate(622.781 90.028)" fill="none" stroke="#b3b3b3" stroke-miterlimit="10" stroke-width="1"/>
          <path id="Trazado_185252" data-name="Trazado 185252" d="M975.278,138a5.911,5.911,0,1,1-5.912-5.912A5.912,5.912,0,0,1,975.278,138" fill="#f2f2f2"/>
          <line id="Línea_181" data-name="Línea 181" y1="42.06" transform="translate(969.366 90.028)" fill="none" stroke="#b3b3b3" stroke-miterlimit="10" stroke-width="1"/>
        </g>
      </g>
    </g>
    <path id="Trazado_185417" data-name="Trazado 185417" d="M13.974,12.47H17.9L17.631,14H11.848l1.606-9.242h1.86ZM20.519,14h-1.8l1.193-6.868h1.8Zm-.4-8.614a.894.894,0,0,1,.279-.7,1.075,1.075,0,0,1,1.409-.032.89.89,0,0,1,.311.673.919.919,0,0,1-.263.686.987.987,0,0,1-.72.3,1,1,0,0,1-.7-.241A.886.886,0,0,1,20.119,5.386Zm4.805,6.348,1.955-4.6h1.93L25.489,14H23.775L22.6,7.132h1.815Zm6.811,2.393a2.988,2.988,0,0,1-1.6-.441A2.675,2.675,0,0,1,29.1,12.492a3.326,3.326,0,0,1-.267-1.673l.019-.254a4.44,4.44,0,0,1,.584-1.841,3.527,3.527,0,0,1,1.257-1.292A3.11,3.11,0,0,1,32.4,7a2.376,2.376,0,0,1,2.009.976,3.345,3.345,0,0,1,.517,2.406l-.1.782H30.612a1.474,1.474,0,0,0,.324,1.066,1.236,1.236,0,0,0,.952.413,2.2,2.2,0,0,0,1.714-.762L34.42,12.9a2.547,2.547,0,0,1-1.117.911A3.653,3.653,0,0,1,31.735,14.127Zm.571-5.643a1.272,1.272,0,0,0-.879.311,2.733,2.733,0,0,0-.689,1.124H33.2l.038-.165a1.682,1.682,0,0,0,.006-.482.921.921,0,0,0-.311-.574A.975.975,0,0,0,32.306,8.484Zm11.451,3.047q.133-.755-.743-1.155L41.79,9.887q-2.133-.952-2.025-2.622a2.408,2.408,0,0,1,.508-1.371,3.053,3.053,0,0,1,1.3-.936,4.607,4.607,0,0,1,1.809-.327,3.134,3.134,0,0,1,2.165.8,2.655,2.655,0,0,1,.813,2.066H44.507a1.322,1.322,0,0,0-.276-.978,1.244,1.244,0,0,0-.955-.362,1.926,1.926,0,0,0-1.1.289,1.185,1.185,0,0,0-.559.828q-.121.692.927,1.1l.838.317.482.222a2.623,2.623,0,0,1,1.752,2.6,2.511,2.511,0,0,1-.524,1.412,2.952,2.952,0,0,1-1.27.911,4.522,4.522,0,0,1-1.768.3,3.96,3.96,0,0,1-1.752-.413A2.721,2.721,0,0,1,39.13,12.61a2.877,2.877,0,0,1-.349-1.523l1.86.006q-.089,1.5,1.479,1.53a1.943,1.943,0,0,0,1.117-.3A1.162,1.162,0,0,0,43.758,11.531Zm5.624,1.124a1.176,1.176,0,0,0,.825-.27,1.326,1.326,0,0,0,.432-.752l1.682-.006a2.467,2.467,0,0,1-.454,1.3,2.757,2.757,0,0,1-1.092.9,3.125,3.125,0,0,1-1.438.3,2.538,2.538,0,0,1-1.98-.863,3.222,3.222,0,0,1-.7-2.247l.019-.349.006-.07a4.294,4.294,0,0,1,1.13-2.656A3.056,3.056,0,0,1,50.175,7a2.476,2.476,0,0,1,1.844.759,2.679,2.679,0,0,1,.67,1.933H51.019a1.406,1.406,0,0,0-.241-.87.916.916,0,0,0-.724-.343q-1.282-.038-1.555,1.873a6.323,6.323,0,0,0-.07,1.168Q48.493,12.635,49.382,12.654Zm8.334-3.8a3.7,3.7,0,0,0-.6-.063,1.735,1.735,0,0,0-1.517.717L54.8,14h-1.79l1.193-6.868,1.682-.006-.165.838a1.889,1.889,0,0,1,1.6-.971,2.611,2.611,0,0,1,.622.089ZM59.57,14h-1.8L58.96,7.132h1.8Zm-.4-8.614a.894.894,0,0,1,.279-.7,1.075,1.075,0,0,1,1.409-.032.89.89,0,0,1,.311.673.919.919,0,0,1-.263.686.987.987,0,0,1-.72.3,1,1,0,0,1-.7-.241A.886.886,0,0,1,59.17,5.386Zm8.512,5.2a5.672,5.672,0,0,1-.565,1.917,3.108,3.108,0,0,1-1.073,1.244,2.485,2.485,0,0,1-1.422.387,1.983,1.983,0,0,1-1.574-.743l-.628,3.25H60.63l1.644-9.509,1.65-.006-.121.692A2.193,2.193,0,0,1,65.555,7a1.951,1.951,0,0,1,1.568.733,3.187,3.187,0,0,1,.6,1.92A7.421,7.421,0,0,1,67.682,10.585Zm-1.777-.13.038-.61a1.7,1.7,0,0,0-.225-.979.809.809,0,0,0-.7-.375,1.477,1.477,0,0,0-1.289.661l-.514,2.835a1,1,0,0,0,1.009.667,1.292,1.292,0,0,0,1.079-.5A3.44,3.44,0,0,0,65.9,10.455Zm5.973-5.011-.3,1.688h1.143l-.235,1.346H71.344l-.584,3.44a.875.875,0,0,0,.051.5q.089.171.432.184.1.006.546-.032l-.127,1.4a3.011,3.011,0,0,1-1.028.146,1.613,1.613,0,0,1-1.314-.552,2,2,0,0,1-.355-1.46l.59-3.625h-.971l.235-1.346h.971l.292-1.688ZM82.085,9.728H78.079V13h4.653v1H76.861V4.758h5.808v1H78.079V8.731h4.005Zm3.091-2.6L85.214,8A2.5,2.5,0,0,1,87.271,7q2.177,0,2.2,2.457V14H88.293V9.455a1.581,1.581,0,0,0-.34-1.1A1.361,1.361,0,0,0,86.915,8a1.7,1.7,0,0,0-1,.3,2.069,2.069,0,0,0-.673.8V14H84.065V7.132Zm10.385,0,.032.762A2.536,2.536,0,0,1,97.63,7a1.964,1.964,0,0,1,1.961,1.1,2.6,2.6,0,0,1,.892-.8,2.634,2.634,0,0,1,1.3-.3q2.26,0,2.3,2.393V14h-1.174V9.468a1.577,1.577,0,0,0-.336-1.1A1.482,1.482,0,0,0,101.439,8a1.557,1.557,0,0,0-1.085.39,1.584,1.584,0,0,0-.5,1.051V14H98.671V9.5A1.31,1.31,0,0,0,97.2,8a1.571,1.571,0,0,0-1.581.984V14H94.45V7.132ZM110.091,14a2.467,2.467,0,0,1-.165-.724,2.62,2.62,0,0,1-1.955.851,2.424,2.424,0,0,1-1.666-.574,1.859,1.859,0,0,1-.651-1.457,1.942,1.942,0,0,1,.816-1.666,3.846,3.846,0,0,1,2.295-.594h1.143V9.3a1.319,1.319,0,0,0-.368-.981,1.48,1.48,0,0,0-1.085-.365,1.712,1.712,0,0,0-1.054.317.935.935,0,0,0-.425.768h-1.181a1.621,1.621,0,0,1,.365-.993,2.491,2.491,0,0,1,.99-.759A3.331,3.331,0,0,1,108.523,7a2.715,2.715,0,0,1,1.86.594,2.141,2.141,0,0,1,.7,1.635v3.161a3.865,3.865,0,0,0,.241,1.5V14Zm-1.949-.9a2.064,2.064,0,0,0,1.047-.286,1.728,1.728,0,0,0,.717-.743V10.667h-.92q-2.158,0-2.158,1.263a1.069,1.069,0,0,0,.368.863A1.415,1.415,0,0,0,108.142,13.1Zm7.027-.825,1.6-5.148h1.257l-2.761,7.928q-.641,1.714-2.038,1.714L113,16.755l-.438-.083V15.72l.317.025a1.563,1.563,0,0,0,.93-.241,1.746,1.746,0,0,0,.549-.882l.26-.7-2.45-6.792h1.282Zm3.593-1.777a4.057,4.057,0,0,1,.4-1.815,2.96,2.96,0,0,1,1.1-1.244A3.007,3.007,0,0,1,121.878,7a2.9,2.9,0,0,1,2.269.971,3.736,3.736,0,0,1,.866,2.583v.083a4.092,4.092,0,0,1-.384,1.8,2.916,2.916,0,0,1-1.1,1.241,3.041,3.041,0,0,1-1.641.444,2.889,2.889,0,0,1-2.263-.971,3.718,3.718,0,0,1-.866-2.571Zm1.181.14a2.938,2.938,0,0,0,.53,1.834,1.8,1.8,0,0,0,2.841-.01,3.213,3.213,0,0,0,.527-1.965,2.933,2.933,0,0,0-.536-1.831,1.705,1.705,0,0,0-1.425-.7,1.686,1.686,0,0,0-1.4.692A3.189,3.189,0,0,0,119.942,10.642ZM133.7,12.178a.865.865,0,0,0-.359-.74,3.452,3.452,0,0,0-1.25-.454,5.912,5.912,0,0,1-1.416-.457,2.014,2.014,0,0,1-.774-.635,1.518,1.518,0,0,1-.251-.876,1.782,1.782,0,0,1,.714-1.428A2.789,2.789,0,0,1,132.193,7a2.87,2.87,0,0,1,1.895.6,1.915,1.915,0,0,1,.727,1.542h-1.181a1.06,1.06,0,0,0-.409-.832,1.534,1.534,0,0,0-1.031-.349,1.605,1.605,0,0,0-1,.279.879.879,0,0,0-.362.73.712.712,0,0,0,.336.641,4.139,4.139,0,0,0,1.216.413,6.334,6.334,0,0,1,1.425.47,2.079,2.079,0,0,1,.809.657,1.615,1.615,0,0,1,.263.936,1.758,1.758,0,0,1-.736,1.476,3.089,3.089,0,0,1-1.911.555,3.459,3.459,0,0,1-1.46-.292,2.375,2.375,0,0,1-.993-.816,1.966,1.966,0,0,1-.359-1.133h1.174a1.216,1.216,0,0,0,.473.936,1.835,1.835,0,0,0,1.165.346,1.894,1.894,0,0,0,1.07-.27A.829.829,0,0,0,133.7,12.178Zm5.554,1.949a3,3,0,0,1-2.272-.917,3.4,3.4,0,0,1-.876-2.453v-.216a4.121,4.121,0,0,1,.39-1.825,3.045,3.045,0,0,1,1.092-1.257A2.745,2.745,0,0,1,139.112,7a2.572,2.572,0,0,1,2.082.882,3.82,3.82,0,0,1,.743,2.526V10.9h-4.653a2.441,2.441,0,0,0,.594,1.641,1.866,1.866,0,0,0,1.444.625,2.045,2.045,0,0,0,1.054-.254,2.647,2.647,0,0,0,.755-.673l.717.559A2.884,2.884,0,0,1,139.258,14.127Zm-.146-6.157a1.566,1.566,0,0,0-1.193.517,2.515,2.515,0,0,0-.6,1.45h3.44V9.849a2.237,2.237,0,0,0-.482-1.387A1.475,1.475,0,0,0,139.112,7.97Zm13.2,2.672a4.112,4.112,0,0,1-.717,2.526,2.3,2.3,0,0,1-1.942.958,2.519,2.519,0,0,1-1.968-.793v3.307h-1.174V7.132h1.073l.057.762A2.419,2.419,0,0,1,149.636,7a2.342,2.342,0,0,1,1.958.933,4.157,4.157,0,0,1,.72,2.6Zm-1.174-.133a3.035,3.035,0,0,0-.5-1.834A1.6,1.6,0,0,0,149.287,8a1.726,1.726,0,0,0-1.6.946v3.282a1.73,1.73,0,0,0,1.612.939,1.587,1.587,0,0,0,1.343-.67A3.312,3.312,0,0,0,151.141,10.509Zm5.986-2.323a3.519,3.519,0,0,0-.578-.044,1.547,1.547,0,0,0-1.568.984V14h-1.174V7.132h1.143l.019.793A1.829,1.829,0,0,1,156.606,7a1.2,1.2,0,0,1,.521.089Zm3.929,5.941a3,3,0,0,1-2.272-.917,3.4,3.4,0,0,1-.876-2.453v-.216a4.121,4.121,0,0,1,.39-1.825,3.045,3.045,0,0,1,1.092-1.257A2.745,2.745,0,0,1,160.91,7a2.572,2.572,0,0,1,2.082.882,3.82,3.82,0,0,1,.743,2.526V10.9h-4.653a2.441,2.441,0,0,0,.594,1.641,1.866,1.866,0,0,0,1.444.625,2.045,2.045,0,0,0,1.054-.254,2.647,2.647,0,0,0,.755-.673l.717.559A2.884,2.884,0,0,1,161.056,14.127ZM160.91,7.97a1.566,1.566,0,0,0-1.193.517,2.515,2.515,0,0,0-.6,1.45h3.44V9.849a2.237,2.237,0,0,0-.482-1.387A1.475,1.475,0,0,0,160.91,7.97Zm8.182,4.208a.865.865,0,0,0-.359-.74,3.452,3.452,0,0,0-1.25-.454,5.912,5.912,0,0,1-1.416-.457,2.014,2.014,0,0,1-.774-.635,1.518,1.518,0,0,1-.251-.876,1.782,1.782,0,0,1,.714-1.428A2.789,2.789,0,0,1,167.581,7a2.87,2.87,0,0,1,1.895.6A1.915,1.915,0,0,1,170.2,9.15h-1.181a1.06,1.06,0,0,0-.409-.832,1.534,1.534,0,0,0-1.031-.349,1.605,1.605,0,0,0-1,.279.879.879,0,0,0-.362.73.712.712,0,0,0,.336.641,4.139,4.139,0,0,0,1.216.413,6.334,6.334,0,0,1,1.425.47,2.079,2.079,0,0,1,.809.657,1.615,1.615,0,0,1,.263.936,1.758,1.758,0,0,1-.736,1.476,3.089,3.089,0,0,1-1.911.555,3.459,3.459,0,0,1-1.46-.292,2.375,2.375,0,0,1-.993-.816,1.966,1.966,0,0,1-.359-1.133h1.174a1.216,1.216,0,0,0,.473.936,1.835,1.835,0,0,0,1.165.346,1.894,1.894,0,0,0,1.07-.27A.829.829,0,0,0,169.092,12.178Zm5.554,1.949a3,3,0,0,1-2.272-.917,3.4,3.4,0,0,1-.876-2.453v-.216a4.121,4.121,0,0,1,.39-1.825,3.045,3.045,0,0,1,1.092-1.257A2.745,2.745,0,0,1,174.5,7a2.572,2.572,0,0,1,2.082.882,3.82,3.82,0,0,1,.743,2.526V10.9h-4.653a2.441,2.441,0,0,0,.594,1.641,1.866,1.866,0,0,0,1.444.625,2.045,2.045,0,0,0,1.054-.254,2.647,2.647,0,0,0,.755-.673l.717.559A2.884,2.884,0,0,1,174.646,14.127ZM174.5,7.97a1.566,1.566,0,0,0-1.193.517,2.515,2.515,0,0,0-.6,1.45h3.44V9.849a2.237,2.237,0,0,0-.482-1.387A1.475,1.475,0,0,0,174.5,7.97Zm5.294-.838.038.863A2.5,2.5,0,0,1,181.889,7q2.177,0,2.2,2.457V14h-1.174V9.455a1.581,1.581,0,0,0-.34-1.1A1.361,1.361,0,0,0,181.533,8a1.7,1.7,0,0,0-1,.3,2.069,2.069,0,0,0-.673.8V14h-1.174V7.132Zm7.655-1.663V7.132h1.282V8.04h-1.282V12.3a.953.953,0,0,0,.171.62.721.721,0,0,0,.584.207,2.843,2.843,0,0,0,.559-.076V14a3.424,3.424,0,0,1-.9.126,1.462,1.462,0,0,1-1.187-.476,2.045,2.045,0,0,1-.4-1.352V8.04h-1.25V7.132h1.25V5.469ZM194.343,14a2.467,2.467,0,0,1-.165-.724,2.62,2.62,0,0,1-1.955.851,2.424,2.424,0,0,1-1.666-.574,1.859,1.859,0,0,1-.651-1.457,1.942,1.942,0,0,1,.816-1.666,3.846,3.846,0,0,1,2.295-.594h1.143V9.3a1.319,1.319,0,0,0-.368-.981,1.48,1.48,0,0,0-1.085-.365,1.712,1.712,0,0,0-1.054.317.935.935,0,0,0-.425.768h-1.181a1.621,1.621,0,0,1,.365-.993,2.491,2.491,0,0,1,.99-.759A3.331,3.331,0,0,1,192.775,7a2.715,2.715,0,0,1,1.86.594,2.141,2.141,0,0,1,.7,1.635v3.161a3.865,3.865,0,0,0,.241,1.5V14Zm-1.949-.9a2.064,2.064,0,0,0,1.047-.286,1.728,1.728,0,0,0,.717-.743V10.667h-.92q-2.158,0-2.158,1.263a1.069,1.069,0,0,0,.368.863A1.415,1.415,0,0,0,192.394,13.1ZM40.184,31.321a2.494,2.494,0,0,1-2.012.806,2.135,2.135,0,0,1-1.673-.638,2.761,2.761,0,0,1-.581-1.888V25.132h1.174v4.437q0,1.562,1.27,1.562a1.758,1.758,0,0,0,1.79-1v-5h1.174V32H40.209Zm4.037-6.189.038.863A2.5,2.5,0,0,1,46.316,25q2.177,0,2.2,2.457V32H47.338V27.455a1.581,1.581,0,0,0-.34-1.1A1.361,1.361,0,0,0,45.96,26a1.7,1.7,0,0,0-1,.3,2.069,2.069,0,0,0-.673.8V32H43.11V25.132ZM54.523,32a2.467,2.467,0,0,1-.165-.724,2.62,2.62,0,0,1-1.955.851,2.424,2.424,0,0,1-1.666-.574,1.859,1.859,0,0,1-.651-1.457,1.942,1.942,0,0,1,.816-1.666,3.846,3.846,0,0,1,2.295-.594h1.143V27.3a1.319,1.319,0,0,0-.368-.981,1.48,1.48,0,0,0-1.085-.365,1.712,1.712,0,0,0-1.054.317.935.935,0,0,0-.425.768H50.226a1.621,1.621,0,0,1,.365-.993,2.491,2.491,0,0,1,.99-.759A3.331,3.331,0,0,1,52.955,25a2.715,2.715,0,0,1,1.86.594,2.141,2.141,0,0,1,.7,1.635v3.161a3.865,3.865,0,0,0,.241,1.5V32Zm-1.949-.9a2.064,2.064,0,0,0,1.047-.286,1.728,1.728,0,0,0,.717-.743V28.667h-.92q-2.158,0-2.158,1.263a1.069,1.069,0,0,0,.368.863A1.415,1.415,0,0,0,52.574,31.1Zm10.264-.7,1.7-5.275h1.2L63.277,32h-.9l-2.488-6.868h1.2Zm6.881,1.72a3,3,0,0,1-2.272-.917,3.4,3.4,0,0,1-.876-2.453v-.216a4.121,4.121,0,0,1,.39-1.825,3.045,3.045,0,0,1,1.092-1.257A2.745,2.745,0,0,1,69.573,25a2.572,2.572,0,0,1,2.082.882,3.82,3.82,0,0,1,.743,2.526V28.9H67.745a2.441,2.441,0,0,0,.594,1.641,1.866,1.866,0,0,0,1.444.625,2.045,2.045,0,0,0,1.054-.254,2.648,2.648,0,0,0,.755-.673l.717.559A2.884,2.884,0,0,1,69.719,32.127Zm-.146-6.157a1.566,1.566,0,0,0-1.193.517,2.515,2.515,0,0,0-.6,1.45h3.44v-.089a2.237,2.237,0,0,0-.482-1.387A1.475,1.475,0,0,0,69.573,25.97Zm7.5.216a3.519,3.519,0,0,0-.578-.044,1.547,1.547,0,0,0-1.568.984V32H73.757V25.132H74.9l.019.793A1.829,1.829,0,0,1,76.556,25a1.2,1.2,0,0,1,.521.089Zm5.078,3.993a.864.864,0,0,0-.359-.74,3.452,3.452,0,0,0-1.25-.454,5.912,5.912,0,0,1-1.416-.457,2.014,2.014,0,0,1-.774-.635,1.518,1.518,0,0,1-.251-.876,1.782,1.782,0,0,1,.714-1.428A2.789,2.789,0,0,1,80.644,25a2.87,2.87,0,0,1,1.895.6,1.915,1.915,0,0,1,.727,1.542H82.085a1.06,1.06,0,0,0-.409-.832,1.534,1.534,0,0,0-1.031-.349,1.606,1.606,0,0,0-1,.279.879.879,0,0,0-.362.73.712.712,0,0,0,.336.641,4.139,4.139,0,0,0,1.216.413,6.334,6.334,0,0,1,1.425.47,2.079,2.079,0,0,1,.809.657,1.615,1.615,0,0,1,.263.936,1.758,1.758,0,0,1-.736,1.476,3.089,3.089,0,0,1-1.911.555,3.459,3.459,0,0,1-1.46-.292,2.375,2.375,0,0,1-.993-.816,1.966,1.966,0,0,1-.359-1.133h1.174a1.216,1.216,0,0,0,.473.936,1.835,1.835,0,0,0,1.165.346,1.894,1.894,0,0,0,1.07-.27A.829.829,0,0,0,82.155,30.178ZM86.135,32H84.96V25.132h1.174Zm-1.27-8.69a.7.7,0,0,1,.175-.482.655.655,0,0,1,.517-.2.666.666,0,0,1,.521.2.694.694,0,0,1,.178.482.671.671,0,0,1-.178.476.678.678,0,0,1-.521.19.667.667,0,0,1-.517-.19A.678.678,0,0,1,84.865,23.31ZM87.7,28.5a4.057,4.057,0,0,1,.4-1.815,2.96,2.96,0,0,1,1.1-1.244A3.007,3.007,0,0,1,90.819,25a2.9,2.9,0,0,1,2.269.971,3.736,3.736,0,0,1,.866,2.583v.083a4.092,4.092,0,0,1-.384,1.8,2.916,2.916,0,0,1-1.1,1.241,3.041,3.041,0,0,1-1.641.444,2.889,2.889,0,0,1-2.263-.971,3.718,3.718,0,0,1-.866-2.571Zm1.181.14a2.938,2.938,0,0,0,.53,1.834,1.8,1.8,0,0,0,2.841-.01,3.213,3.213,0,0,0,.527-1.965,2.933,2.933,0,0,0-.536-1.831,1.705,1.705,0,0,0-1.425-.7,1.686,1.686,0,0,0-1.4.692A3.189,3.189,0,0,0,88.883,28.642Zm2.469-6.392h1.422l-1.7,1.866-.946,0Zm5.186,2.882.038.863A2.5,2.5,0,0,1,98.633,25q2.177,0,2.2,2.457V32H99.655V27.455a1.581,1.581,0,0,0-.34-1.1A1.361,1.361,0,0,0,98.278,26a1.7,1.7,0,0,0-1,.3,2.069,2.069,0,0,0-.673.8V32H95.427V25.132ZM107.094,32H105.92V25.132h1.174Zm-1.27-8.69a.7.7,0,0,1,.175-.482.655.655,0,0,1,.517-.2.666.666,0,0,1,.521.2.694.694,0,0,1,.178.482.671.671,0,0,1-.178.476.678.678,0,0,1-.521.19.667.667,0,0,1-.517-.19A.678.678,0,0,1,105.825,23.31Zm4.259,1.822.038.863a2.5,2.5,0,0,1,2.057-.99q2.177,0,2.2,2.457V32H113.2V27.455a1.581,1.581,0,0,0-.34-1.1A1.361,1.361,0,0,0,111.823,26a1.7,1.7,0,0,0-1,.3,2.069,2.069,0,0,0-.673.8V32h-1.174V25.132Zm8.817,6.037a1.691,1.691,0,0,0,1.1-.381,1.34,1.34,0,0,0,.521-.952h1.111a2.13,2.13,0,0,1-.406,1.124,2.676,2.676,0,0,1-1,.851,2.885,2.885,0,0,1-1.323.317,2.829,2.829,0,0,1-2.231-.936,3.729,3.729,0,0,1-.828-2.561v-.2a4.135,4.135,0,0,1,.368-1.784,2.8,2.8,0,0,1,1.057-1.212A3,3,0,0,1,118.895,25a2.755,2.755,0,0,1,1.92.692,2.473,2.473,0,0,1,.816,1.8H120.52a1.618,1.618,0,0,0-.5-1.095,1.57,1.57,0,0,0-1.12-.428,1.644,1.644,0,0,0-1.387.644,3.026,3.026,0,0,0-.492,1.863V28.7a2.966,2.966,0,0,0,.489,1.828A1.651,1.651,0,0,0,118.9,31.168ZM122.64,28.5a4.057,4.057,0,0,1,.4-1.815,2.96,2.96,0,0,1,1.1-1.244A3.007,3.007,0,0,1,125.757,25a2.9,2.9,0,0,1,2.269.971,3.736,3.736,0,0,1,.866,2.583v.083a4.092,4.092,0,0,1-.384,1.8,2.916,2.916,0,0,1-1.1,1.241,3.041,3.041,0,0,1-1.641.444,2.889,2.889,0,0,1-2.263-.971,3.718,3.718,0,0,1-.866-2.571Zm1.181.14a2.938,2.938,0,0,0,.53,1.834,1.8,1.8,0,0,0,2.841-.01,3.213,3.213,0,0,0,.527-1.965,2.933,2.933,0,0,0-.536-1.831,1.705,1.705,0,0,0-1.425-.7,1.686,1.686,0,0,0-1.4.692A3.189,3.189,0,0,0,123.821,28.642Zm7.649-3.51.032.762A2.536,2.536,0,0,1,133.539,25a1.964,1.964,0,0,1,1.961,1.1,2.6,2.6,0,0,1,.892-.8,2.634,2.634,0,0,1,1.3-.3q2.26,0,2.3,2.393V32h-1.174V27.468a1.577,1.577,0,0,0-.336-1.1,1.482,1.482,0,0,0-1.13-.365,1.557,1.557,0,0,0-1.085.39,1.584,1.584,0,0,0-.5,1.051V32H134.58V27.5a1.31,1.31,0,0,0-1.466-1.5,1.571,1.571,0,0,0-1.581.984V32h-1.174V25.132Zm16.091,3.51a4.112,4.112,0,0,1-.717,2.526,2.3,2.3,0,0,1-1.942.958,2.519,2.519,0,0,1-1.968-.793v3.307h-1.174V25.132h1.073l.057.762A2.419,2.419,0,0,1,144.882,25a2.342,2.342,0,0,1,1.958.933,4.157,4.157,0,0,1,.72,2.6Zm-1.174-.133a3.035,3.035,0,0,0-.5-1.834A1.6,1.6,0,0,0,144.533,26a1.726,1.726,0,0,0-1.6.946v3.282a1.73,1.73,0,0,0,1.612.939,1.587,1.587,0,0,0,1.343-.67A3.312,3.312,0,0,0,146.386,28.509ZM150.328,32h-1.174V22.25h1.174Zm4.729.127a3,3,0,0,1-2.272-.917,3.4,3.4,0,0,1-.876-2.453v-.216a4.121,4.121,0,0,1,.39-1.825,3.045,3.045,0,0,1,1.092-1.257,2.745,2.745,0,0,1,1.52-.454,2.572,2.572,0,0,1,2.082.882,3.82,3.82,0,0,1,.743,2.526V28.9h-4.653a2.441,2.441,0,0,0,.594,1.641,1.866,1.866,0,0,0,1.444.625,2.045,2.045,0,0,0,1.054-.254,2.647,2.647,0,0,0,.755-.673l.717.559A2.884,2.884,0,0,1,155.057,32.127Zm-.146-6.157a1.566,1.566,0,0,0-1.193.517,2.515,2.515,0,0,0-.6,1.45h3.44v-.089a2.237,2.237,0,0,0-.482-1.387A1.475,1.475,0,0,0,154.911,25.97Zm5.776-2.5v1.663h1.282v.908h-1.282V30.3a.953.953,0,0,0,.171.62.721.721,0,0,0,.584.207,2.843,2.843,0,0,0,.559-.076V32a3.424,3.424,0,0,1-.9.126,1.462,1.462,0,0,1-1.187-.476,2.045,2.045,0,0,1-.4-1.352V26.04h-1.25v-.908h1.25V23.469ZM167.581,32a2.467,2.467,0,0,1-.165-.724,2.62,2.62,0,0,1-1.955.851,2.424,2.424,0,0,1-1.666-.574,1.859,1.859,0,0,1-.651-1.457,1.942,1.942,0,0,1,.816-1.666,3.846,3.846,0,0,1,2.295-.594H167.4V27.3a1.319,1.319,0,0,0-.368-.981,1.48,1.48,0,0,0-1.085-.365,1.712,1.712,0,0,0-1.054.317.935.935,0,0,0-.425.768h-1.181a1.621,1.621,0,0,1,.365-.993,2.491,2.491,0,0,1,.99-.759A3.331,3.331,0,0,1,166.013,25a2.715,2.715,0,0,1,1.86.594,2.141,2.141,0,0,1,.7,1.635v3.161a3.865,3.865,0,0,0,.241,1.5V32Zm-1.949-.9a2.064,2.064,0,0,0,1.047-.286,1.728,1.728,0,0,0,.717-.743V28.667h-.92q-2.158,0-2.158,1.263a1.069,1.069,0,0,0,.368.863A1.415,1.415,0,0,0,165.633,31.1Zm4.805.279a.735.735,0,0,1,.181-.508.689.689,0,0,1,.543-.2.71.71,0,0,1,.549.2.721.721,0,0,1,.187.508.682.682,0,0,1-.187.489.723.723,0,0,1-.549.2.653.653,0,0,1-.724-.686Zm-164.093,15V50H5.126V40.758H8.534a3.425,3.425,0,0,1,2.377.774,2.625,2.625,0,0,1,.86,2.05,2.591,2.591,0,0,1-.841,2.073,3.578,3.578,0,0,1-2.409.727Zm0-1h2.19a2.19,2.19,0,0,0,1.5-.461,1.686,1.686,0,0,0,.521-1.332,1.742,1.742,0,0,0-.521-1.323A2.051,2.051,0,0,0,8.6,41.754H6.344Zm6.4,1.117a4.057,4.057,0,0,1,.4-1.815,2.96,2.96,0,0,1,1.1-1.244A3.007,3.007,0,0,1,15.866,43a2.9,2.9,0,0,1,2.269.971A3.736,3.736,0,0,1,19,46.56v.083a4.092,4.092,0,0,1-.384,1.8,2.916,2.916,0,0,1-1.1,1.241,3.041,3.041,0,0,1-1.641.444,2.889,2.889,0,0,1-2.263-.971,3.718,3.718,0,0,1-.866-2.571Zm1.181.14a2.938,2.938,0,0,0,.53,1.834,1.8,1.8,0,0,0,2.841-.01,3.213,3.213,0,0,0,.527-1.965,2.933,2.933,0,0,0-.536-1.831,1.705,1.705,0,0,0-1.425-.7,1.686,1.686,0,0,0-1.4.692A3.189,3.189,0,0,0,13.93,46.642Zm10.543,1.536a.864.864,0,0,0-.359-.74,3.452,3.452,0,0,0-1.25-.454,5.912,5.912,0,0,1-1.416-.457,2.014,2.014,0,0,1-.774-.635,1.518,1.518,0,0,1-.251-.876,1.782,1.782,0,0,1,.714-1.428A2.789,2.789,0,0,1,22.963,43a2.87,2.87,0,0,1,1.895.6,1.915,1.915,0,0,1,.727,1.542H24.4a1.06,1.06,0,0,0-.409-.832,1.534,1.534,0,0,0-1.031-.349,1.605,1.605,0,0,0-1,.279.879.879,0,0,0-.362.73.712.712,0,0,0,.336.641,4.139,4.139,0,0,0,1.216.413,6.334,6.334,0,0,1,1.425.47,2.079,2.079,0,0,1,.809.657,1.615,1.615,0,0,1,.263.936,1.758,1.758,0,0,1-.736,1.476A3.089,3.089,0,0,1,23,50.127a3.459,3.459,0,0,1-1.46-.292,2.374,2.374,0,0,1-.993-.816,1.966,1.966,0,0,1-.359-1.133h1.174a1.216,1.216,0,0,0,.473.936A1.835,1.835,0,0,0,23,49.168a1.894,1.894,0,0,0,1.07-.27A.829.829,0,0,0,24.473,48.178Zm4.3-6.709v1.663h1.282v.908H28.771V48.3a.953.953,0,0,0,.171.62.721.721,0,0,0,.584.207,2.843,2.843,0,0,0,.559-.076V50a3.424,3.424,0,0,1-.9.126A1.462,1.462,0,0,1,28,49.651a2.045,2.045,0,0,1-.4-1.352V44.04h-1.25v-.908H27.6V41.469Zm5.5,8.658A3,3,0,0,1,32,49.21a3.4,3.4,0,0,1-.876-2.453v-.216a4.121,4.121,0,0,1,.39-1.825,3.045,3.045,0,0,1,1.092-1.257A2.745,2.745,0,0,1,34.128,43a2.572,2.572,0,0,1,2.082.882,3.82,3.82,0,0,1,.743,2.526V46.9H32.3a2.441,2.441,0,0,0,.594,1.641,1.866,1.866,0,0,0,1.444.625,2.045,2.045,0,0,0,1.054-.254,2.648,2.648,0,0,0,.755-.673l.717.559A2.884,2.884,0,0,1,34.274,50.127Zm-.146-6.157a1.566,1.566,0,0,0-1.193.517,2.515,2.515,0,0,0-.6,1.45h3.44v-.089a2.237,2.237,0,0,0-.482-1.387A1.475,1.475,0,0,0,34.128,43.97Zm7.5.216a3.519,3.519,0,0,0-.578-.044,1.547,1.547,0,0,0-1.568.984V50H38.311V43.132h1.143l.019.793A1.829,1.829,0,0,1,41.111,43a1.2,1.2,0,0,1,.521.089ZM43.986,50H42.812V43.132h1.174Zm-1.27-8.69a.7.7,0,0,1,.175-.482.655.655,0,0,1,.517-.2.666.666,0,0,1,.521.2.694.694,0,0,1,.178.482.671.671,0,0,1-.178.476.678.678,0,0,1-.521.19.667.667,0,0,1-.517-.19A.678.678,0,0,1,42.717,41.31ZM45.554,46.5a4.057,4.057,0,0,1,.4-1.815,2.96,2.96,0,0,1,1.1-1.244A3.007,3.007,0,0,1,48.671,43a2.9,2.9,0,0,1,2.269.971,3.736,3.736,0,0,1,.866,2.583v.083a4.092,4.092,0,0,1-.384,1.8,2.916,2.916,0,0,1-1.1,1.241,3.041,3.041,0,0,1-1.641.444,2.889,2.889,0,0,1-2.263-.971,3.718,3.718,0,0,1-.866-2.571Zm1.181.14a2.938,2.938,0,0,0,.53,1.834,1.8,1.8,0,0,0,2.841-.01,3.213,3.213,0,0,0,.527-1.965,2.933,2.933,0,0,0-.536-1.831,1.705,1.705,0,0,0-1.425-.7,1.686,1.686,0,0,0-1.4.692A3.189,3.189,0,0,0,46.735,46.642ZM56.6,44.186a3.519,3.519,0,0,0-.578-.044,1.547,1.547,0,0,0-1.568.984V50H53.279V43.132h1.143l.019.793A1.829,1.829,0,0,1,56.078,43a1.2,1.2,0,0,1,.521.089Zm2.184-1.054.032.762A2.536,2.536,0,0,1,60.852,43a1.964,1.964,0,0,1,1.961,1.1,2.6,2.6,0,0,1,.892-.8A2.634,2.634,0,0,1,65,43q2.26,0,2.3,2.393V50H66.127V45.468a1.577,1.577,0,0,0-.336-1.1A1.482,1.482,0,0,0,64.66,44a1.557,1.557,0,0,0-1.085.39,1.584,1.584,0,0,0-.5,1.051V50H61.893V45.5A1.31,1.31,0,0,0,60.427,44a1.571,1.571,0,0,0-1.581.984V50H57.672V43.132Zm13.14,7a3,3,0,0,1-2.272-.917,3.4,3.4,0,0,1-.876-2.453v-.216a4.121,4.121,0,0,1,.39-1.825,3.045,3.045,0,0,1,1.092-1.257A2.745,2.745,0,0,1,71.776,43a2.572,2.572,0,0,1,2.082.882,3.82,3.82,0,0,1,.743,2.526V46.9H69.948a2.441,2.441,0,0,0,.594,1.641,1.866,1.866,0,0,0,1.444.625,2.045,2.045,0,0,0,1.054-.254,2.648,2.648,0,0,0,.755-.673l.717.559A2.884,2.884,0,0,1,71.922,50.127Zm-.146-6.157a1.566,1.566,0,0,0-1.193.517,2.515,2.515,0,0,0-.6,1.45h3.44v-.089a2.237,2.237,0,0,0-.482-1.387A1.475,1.475,0,0,0,71.776,43.97Zm5.294-.838.038.863A2.5,2.5,0,0,1,79.165,43q2.177,0,2.2,2.457V50H80.187V45.455a1.581,1.581,0,0,0-.34-1.1A1.361,1.361,0,0,0,78.809,44a1.7,1.7,0,0,0-1,.3,2.069,2.069,0,0,0-.673.8V50H75.959V43.132Zm7.655-1.663v1.663h1.282v.908H84.725V48.3a.953.953,0,0,0,.171.62.721.721,0,0,0,.584.207,2.843,2.843,0,0,0,.559-.076V50a3.424,3.424,0,0,1-.9.126,1.462,1.462,0,0,1-1.187-.476,2.045,2.045,0,0,1-.4-1.352V44.04H82.3v-.908h1.25V41.469Zm5.5,8.658a3,3,0,0,1-2.272-.917,3.4,3.4,0,0,1-.876-2.453v-.216a4.121,4.121,0,0,1,.39-1.825,3.045,3.045,0,0,1,1.092-1.257A2.745,2.745,0,0,1,90.083,43a2.572,2.572,0,0,1,2.082.882,3.82,3.82,0,0,1,.743,2.526V46.9H88.255a2.441,2.441,0,0,0,.594,1.641,1.866,1.866,0,0,0,1.444.625,2.045,2.045,0,0,0,1.054-.254,2.648,2.648,0,0,0,.755-.673l.717.559A2.884,2.884,0,0,1,90.229,50.127Zm-.146-6.157a1.566,1.566,0,0,0-1.193.517,2.515,2.515,0,0,0-.6,1.45h3.44v-.089a2.237,2.237,0,0,0-.482-1.387A1.475,1.475,0,0,0,90.083,43.97Zm4.145,7.871-.667-.457a3.063,3.063,0,0,0,.622-1.714V48.61h1.149v.92a2.891,2.891,0,0,1-.314,1.282A3,3,0,0,1,94.228,51.841Zm8.658-1.714a3,3,0,0,1-2.272-.917,3.4,3.4,0,0,1-.876-2.453v-.216a4.121,4.121,0,0,1,.39-1.825,3.045,3.045,0,0,1,1.092-1.257A2.745,2.745,0,0,1,102.74,43a2.572,2.572,0,0,1,2.082.882,3.82,3.82,0,0,1,.743,2.526V46.9h-4.653a2.441,2.441,0,0,0,.594,1.641,1.866,1.866,0,0,0,1.444.625A2.045,2.045,0,0,0,104,48.915a2.648,2.648,0,0,0,.755-.673l.717.559A2.884,2.884,0,0,1,102.886,50.127Zm-.146-6.157a1.566,1.566,0,0,0-1.193.517,2.515,2.515,0,0,0-.6,1.45h3.44v-.089a2.237,2.237,0,0,0-.482-1.387A1.475,1.475,0,0,0,102.74,43.97Zm5.294-.838.038.863a2.5,2.5,0,0,1,2.057-.99q2.177,0,2.2,2.457V50h-1.174V45.455a1.581,1.581,0,0,0-.34-1.1A1.361,1.361,0,0,0,109.773,44a1.7,1.7,0,0,0-1,.3,2.069,2.069,0,0,0-.673.8V50h-1.174V43.132Zm13.279,5.046a.864.864,0,0,0-.359-.74,3.452,3.452,0,0,0-1.25-.454,5.912,5.912,0,0,1-1.416-.457,2.014,2.014,0,0,1-.774-.635,1.518,1.518,0,0,1-.251-.876,1.782,1.782,0,0,1,.714-1.428A2.789,2.789,0,0,1,119.8,43a2.87,2.87,0,0,1,1.895.6,1.915,1.915,0,0,1,.727,1.542h-1.181a1.06,1.06,0,0,0-.409-.832,1.534,1.534,0,0,0-1.031-.349,1.605,1.605,0,0,0-1,.279.879.879,0,0,0-.362.73.712.712,0,0,0,.336.641,4.139,4.139,0,0,0,1.216.413,6.334,6.334,0,0,1,1.425.47,2.079,2.079,0,0,1,.809.657,1.615,1.615,0,0,1,.263.936,1.758,1.758,0,0,1-.736,1.476,3.089,3.089,0,0,1-1.911.555,3.459,3.459,0,0,1-1.46-.292,2.374,2.374,0,0,1-.993-.816,1.966,1.966,0,0,1-.359-1.133H118.2a1.216,1.216,0,0,0,.473.936,1.835,1.835,0,0,0,1.165.346,1.894,1.894,0,0,0,1.07-.27A.829.829,0,0,0,121.313,48.178Zm5.554,1.949a3,3,0,0,1-2.272-.917,3.4,3.4,0,0,1-.876-2.453v-.216a4.121,4.121,0,0,1,.39-1.825,3.045,3.045,0,0,1,1.092-1.257,2.745,2.745,0,0,1,1.52-.454,2.572,2.572,0,0,1,2.082.882,3.82,3.82,0,0,1,.743,2.526V46.9h-4.653a2.441,2.441,0,0,0,.594,1.641,1.866,1.866,0,0,0,1.444.625,2.045,2.045,0,0,0,1.054-.254,2.647,2.647,0,0,0,.755-.673l.717.559A2.884,2.884,0,0,1,126.867,50.127Zm-.146-6.157a1.566,1.566,0,0,0-1.193.517,2.515,2.515,0,0,0-.6,1.45h3.44v-.089a2.237,2.237,0,0,0-.482-1.387A1.475,1.475,0,0,0,126.721,43.97Zm9.985,2.672a4.112,4.112,0,0,1-.717,2.526,2.3,2.3,0,0,1-1.942.958,2.519,2.519,0,0,1-1.968-.793v3.307H130.9V43.132h1.073l.057.762A2.419,2.419,0,0,1,134.028,43a2.342,2.342,0,0,1,1.958.933,4.157,4.157,0,0,1,.72,2.6Zm-1.174-.133a3.035,3.035,0,0,0-.5-1.834A1.6,1.6,0,0,0,133.678,44a1.726,1.726,0,0,0-1.6.946v3.282a1.73,1.73,0,0,0,1.612.939,1.587,1.587,0,0,0,1.343-.67A3.312,3.312,0,0,0,135.532,46.509Zm4.259-5.04v1.663h1.282v.908h-1.282V48.3a.953.953,0,0,0,.171.62.721.721,0,0,0,.584.207,2.843,2.843,0,0,0,.559-.076V50a3.424,3.424,0,0,1-.9.126,1.462,1.462,0,0,1-1.187-.476,2.045,2.045,0,0,1-.4-1.352V44.04h-1.25v-.908h1.25V41.469ZM143.72,50h-1.174V43.132h1.174Zm-1.27-8.69a.7.7,0,0,1,.175-.482.655.655,0,0,1,.517-.2.666.666,0,0,1,.521.2.694.694,0,0,1,.178.482.671.671,0,0,1-.178.476.678.678,0,0,1-.521.19.667.667,0,0,1-.517-.19A.678.678,0,0,1,142.451,41.31Zm6,8.817a3,3,0,0,1-2.272-.917,3.4,3.4,0,0,1-.876-2.453v-.216a4.121,4.121,0,0,1,.39-1.825,3.045,3.045,0,0,1,1.092-1.257A2.745,2.745,0,0,1,148.3,43a2.572,2.572,0,0,1,2.082.882,3.82,3.82,0,0,1,.743,2.526V46.9h-4.653a2.441,2.441,0,0,0,.594,1.641,1.866,1.866,0,0,0,1.444.625,2.045,2.045,0,0,0,1.054-.254,2.647,2.647,0,0,0,.755-.673l.717.559A2.884,2.884,0,0,1,148.449,50.127ZM148.3,43.97a1.566,1.566,0,0,0-1.193.517,2.515,2.515,0,0,0-.6,1.45h3.44v-.089a2.237,2.237,0,0,0-.482-1.387A1.475,1.475,0,0,0,148.3,43.97Zm5.288-.838.032.762A2.536,2.536,0,0,1,155.66,43a1.964,1.964,0,0,1,1.961,1.1,2.6,2.6,0,0,1,.892-.8,2.634,2.634,0,0,1,1.3-.3q2.26,0,2.3,2.393V50h-1.174V45.468a1.577,1.577,0,0,0-.336-1.1,1.482,1.482,0,0,0-1.13-.365,1.557,1.557,0,0,0-1.085.39,1.584,1.584,0,0,0-.5,1.051V50H156.7V45.5a1.31,1.31,0,0,0-1.466-1.5,1.571,1.571,0,0,0-1.581.984V50H152.48V43.132Zm16.1,3.51a4.084,4.084,0,0,1-.724,2.53,2.312,2.312,0,0,1-1.942.955,2.394,2.394,0,0,1-2.012-.92L164.96,50h-1.079V40.25h1.174v3.637A2.381,2.381,0,0,1,167.016,43a2.326,2.326,0,0,1,1.965.946,4.206,4.206,0,0,1,.714,2.59Zm-1.174-.133a3.173,3.173,0,0,0-.463-1.854A1.534,1.534,0,0,0,166.724,44a1.724,1.724,0,0,0-1.669,1.079v2.971a1.772,1.772,0,0,0,1.682,1.079,1.526,1.526,0,0,0,1.314-.654A3.374,3.374,0,0,0,168.521,46.509Zm5.973-2.323a3.519,3.519,0,0,0-.578-.044,1.547,1.547,0,0,0-1.568.984V50h-1.174V43.132h1.143l.019.793a1.829,1.829,0,0,1,1.638-.92,1.2,1.2,0,0,1,.521.089Zm3.929,5.941a3,3,0,0,1-2.272-.917,3.4,3.4,0,0,1-.876-2.453v-.216a4.121,4.121,0,0,1,.39-1.825,3.045,3.045,0,0,1,1.092-1.257,2.745,2.745,0,0,1,1.52-.454,2.572,2.572,0,0,1,2.082.882,3.82,3.82,0,0,1,.743,2.526V46.9h-4.653a2.441,2.441,0,0,0,.594,1.641,1.866,1.866,0,0,0,1.444.625,2.045,2.045,0,0,0,1.054-.254,2.647,2.647,0,0,0,.755-.673l.717.559A2.884,2.884,0,0,1,178.423,50.127Zm-.146-6.157a1.566,1.566,0,0,0-1.193.517,2.515,2.515,0,0,0-.6,1.45h3.44v-.089a2.237,2.237,0,0,0-.482-1.387A1.475,1.475,0,0,0,178.277,43.97ZM186.231,50h-1.143l1.688-9.75h1.149Zm3.123,0h-1.143l1.193-6.868h1.143Zm.946-9.375a.629.629,0,0,1,.486.175.653.653,0,0,1,.194.492.677.677,0,0,1-.679.692.633.633,0,0,1-.489-.171.621.621,0,0,1-.184-.482.72.72,0,0,1,.19-.5A.671.671,0,0,1,190.3,40.625Zm3.428,7.77,2.476-5.262h1.212L193.956,50h-.876l-1.346-6.868h1.13Zm6.646,1.733a2.476,2.476,0,0,1-2.006-.946,3.255,3.255,0,0,1-.609-2.355l.032-.273a4.57,4.57,0,0,1,.606-1.866,3.526,3.526,0,0,1,1.216-1.273A2.836,2.836,0,0,1,201.16,43a2.184,2.184,0,0,1,1.663.7,2.9,2.9,0,0,1,.66,1.841,5.38,5.38,0,0,1-.025.825l-.07.527H198.9a2.32,2.32,0,0,0,.308,1.587,1.458,1.458,0,0,0,1.26.679,2.443,2.443,0,0,0,1.879-.914l.66.559a3.021,3.021,0,0,1-1.114.974A3.157,3.157,0,0,1,200.373,50.127Zm.73-6.164a1.678,1.678,0,0,0-1.241.482,3.429,3.429,0,0,0-.841,1.492l3.339.006.025-.1a1.879,1.879,0,0,0-.257-1.33A1.209,1.209,0,0,0,201.1,43.963ZM17.361,65.62q.14-1.016-1.054-1.485l-1.1-.4-.368-.159q-1.854-.844-1.733-2.374a2.483,2.483,0,0,1,.527-1.358,3,3,0,0,1,1.228-.911,3.94,3.94,0,0,1,1.628-.3,3.25,3.25,0,0,1,1.495.375,2.407,2.407,0,0,1,1,.993,2.708,2.708,0,0,1,.3,1.438l-1.2-.006a1.655,1.655,0,0,0-.381-1.322,1.705,1.705,0,0,0-1.27-.481,2.365,2.365,0,0,0-1.454.407,1.589,1.589,0,0,0-.673,1.145q-.127.948,1.162,1.437l.946.337.476.2a2.39,2.39,0,0,1,1.657,2.45,2.448,2.448,0,0,1-.527,1.349,2.946,2.946,0,0,1-1.241.879,4.278,4.278,0,0,1-1.685.292,3.526,3.526,0,0,1-1.59-.371,2.594,2.594,0,0,1-1.095-1,2.5,2.5,0,0,1-.33-1.441l1.193.006a1.572,1.572,0,0,0,.448,1.311,2.014,2.014,0,0,0,1.425.5,2.544,2.544,0,0,0,1.517-.4A1.557,1.557,0,0,0,17.361,65.62Zm5.078,1.555a1.743,1.743,0,0,0,1.111-.359,1.706,1.706,0,0,0,.647-.974l1.085-.006a2.449,2.449,0,0,1-.517,1.181,2.99,2.99,0,0,1-2.377,1.111,2.451,2.451,0,0,1-1.45-.448,2.506,2.506,0,0,1-.873-1.212,4.04,4.04,0,0,1-.19-1.749l.032-.317a4.554,4.554,0,0,1,.578-1.771,3.34,3.34,0,0,1,1.193-1.216A2.964,2.964,0,0,1,23.3,61a2.321,2.321,0,0,1,1.727.724,2.5,2.5,0,0,1,.647,1.771L24.6,63.493a1.649,1.649,0,0,0-.375-1.089,1.306,1.306,0,0,0-.978-.441,1.831,1.831,0,0,0-1.489.667,3.491,3.491,0,0,0-.74,1.917L21,64.712a5.505,5.505,0,0,0-.013.838,1.914,1.914,0,0,0,.419,1.174A1.346,1.346,0,0,0,22.439,67.175Zm8.036-5-.54-.057a1.966,1.966,0,0,0-1.739,1L27.352,68H26.2L27.4,61.132l1.111-.006-.171.8a2.054,2.054,0,0,1,1.72-.933,2.107,2.107,0,0,1,.546.1ZM31.776,68H30.634l1.193-6.868H32.97Zm.946-9.375a.629.629,0,0,1,.486.175.653.653,0,0,1,.194.492.677.677,0,0,1-.679.692.633.633,0,0,1-.489-.171.621.621,0,0,1-.184-.482.72.72,0,0,1,.19-.5A.671.671,0,0,1,32.722,58.625ZM39.876,64.6a5.449,5.449,0,0,1-.565,1.885,3.208,3.208,0,0,1-1.085,1.254,2.484,2.484,0,0,1-1.435.4,2.287,2.287,0,0,1-1.828-.806l-.616,3.313H33.2l1.65-9.509,1.041-.006-.127.768A2.606,2.606,0,0,1,37.8,61a1.916,1.916,0,0,1,1.542.73,3.213,3.213,0,0,1,.584,1.942,6.836,6.836,0,0,1-.032.787Zm-1.13-.13.032-.533a2.412,2.412,0,0,0-.352-1.417A1.239,1.239,0,0,0,37.407,62a2.037,2.037,0,0,0-1.72.945l-.578,3.29a1.437,1.437,0,0,0,1.39.938,1.807,1.807,0,0,0,1.457-.669A3.882,3.882,0,0,0,38.746,64.468Zm5.084-5-.292,1.663h1.25l-.159.908H43.386l-.717,4.272a1.489,1.489,0,0,0-.006.3.484.484,0,0,0,.54.5,3.29,3.29,0,0,0,.559-.063l-.089.958a3.126,3.126,0,0,1-.838.114,1.2,1.2,0,0,1-1.028-.5,1.952,1.952,0,0,1-.267-1.323l.7-4.253H41.025l.159-.908H42.4l.292-1.663Zm7.306,6.811,1.6-5.148h1.257L51.232,69.06q-.641,1.714-2.038,1.714l-.222-.019-.438-.083V69.72l.317.025a1.563,1.563,0,0,0,.93-.241,1.746,1.746,0,0,0,.549-.882l.26-.7-2.45-6.792h1.282Zm9.972,1.847a3,3,0,0,1-2.272-.917,3.4,3.4,0,0,1-.876-2.453v-.216a4.121,4.121,0,0,1,.39-1.825,3.045,3.045,0,0,1,1.092-1.257A2.745,2.745,0,0,1,60.963,61a2.572,2.572,0,0,1,2.082.882,3.82,3.82,0,0,1,.743,2.526V64.9H59.135a2.441,2.441,0,0,0,.594,1.641,1.866,1.866,0,0,0,1.444.625,2.045,2.045,0,0,0,1.054-.254,2.648,2.648,0,0,0,.755-.673l.717.559A2.884,2.884,0,0,1,61.109,68.127Zm-.146-6.157a1.566,1.566,0,0,0-1.193.517,2.515,2.515,0,0,0-.6,1.45h3.44v-.089a2.237,2.237,0,0,0-.482-1.387A1.475,1.475,0,0,0,60.963,61.97Zm5.294-.838.038.863A2.5,2.5,0,0,1,68.352,61q2.177,0,2.2,2.457V68H69.374V63.455a1.581,1.581,0,0,0-.34-1.1A1.361,1.361,0,0,0,68,62a1.7,1.7,0,0,0-1,.3,2.069,2.069,0,0,0-.673.8V68H65.146V61.132Zm8.995,3.377A4.023,4.023,0,0,1,76,61.967a2.548,2.548,0,0,1,3.872-.136V58.25h1.174V68H79.968l-.057-.736a2.391,2.391,0,0,1-1.961.863A2.346,2.346,0,0,1,76,67.149a4.069,4.069,0,0,1-.752-2.552Zm1.174.133a3.046,3.046,0,0,0,.482,1.828,1.56,1.56,0,0,0,1.333.66,1.713,1.713,0,0,0,1.631-1V62.973A1.726,1.726,0,0,0,78.254,62a1.567,1.567,0,0,0-1.346.667A3.354,3.354,0,0,0,76.426,64.642ZM84.145,68H82.97V61.132h1.174Zm-1.27-8.69a.7.7,0,0,1,.175-.482.655.655,0,0,1,.517-.2.666.666,0,0,1,.521.2.694.694,0,0,1,.178.482.671.671,0,0,1-.178.476.678.678,0,0,1-.521.19.667.667,0,0,1-.517-.19A.678.678,0,0,1,82.875,59.31Zm5.9,7.858a1.691,1.691,0,0,0,1.1-.381,1.34,1.34,0,0,0,.521-.952h1.111a2.13,2.13,0,0,1-.406,1.124,2.676,2.676,0,0,1-1,.851,2.885,2.885,0,0,1-1.323.317,2.829,2.829,0,0,1-2.231-.936,3.729,3.729,0,0,1-.828-2.561v-.2a4.135,4.135,0,0,1,.368-1.784,2.8,2.8,0,0,1,1.057-1.212A3,3,0,0,1,88.772,61a2.755,2.755,0,0,1,1.92.692,2.473,2.473,0,0,1,.816,1.8H90.4a1.618,1.618,0,0,0-.5-1.095,1.57,1.57,0,0,0-1.12-.428,1.644,1.644,0,0,0-1.387.644,3.026,3.026,0,0,0-.492,1.863V64.7a2.966,2.966,0,0,0,.489,1.828A1.651,1.651,0,0,0,88.778,67.168ZM94.1,68H92.93V61.132H94.1Zm-1.27-8.69a.7.7,0,0,1,.175-.482.655.655,0,0,1,.517-.2.666.666,0,0,1,.521.2.694.694,0,0,1,.178.482.671.671,0,0,1-.178.476.678.678,0,0,1-.521.19.667.667,0,0,1-.517-.19A.678.678,0,0,1,92.834,59.31Zm6,8.817a3,3,0,0,1-2.272-.917,3.4,3.4,0,0,1-.876-2.453v-.216a4.121,4.121,0,0,1,.39-1.825,3.045,3.045,0,0,1,1.092-1.257A2.745,2.745,0,0,1,98.687,61a2.572,2.572,0,0,1,2.082.882,3.82,3.82,0,0,1,.743,2.526V64.9H96.859a2.441,2.441,0,0,0,.594,1.641,1.866,1.866,0,0,0,1.444.625,2.045,2.045,0,0,0,1.054-.254,2.648,2.648,0,0,0,.755-.673l.717.559A2.884,2.884,0,0,1,98.833,68.127Zm-.146-6.157a1.566,1.566,0,0,0-1.193.517,2.515,2.515,0,0,0-.6,1.45h3.44v-.089a2.237,2.237,0,0,0-.482-1.387A1.475,1.475,0,0,0,98.687,61.97Zm5.288-.838.032.762A2.536,2.536,0,0,1,106.044,61a1.964,1.964,0,0,1,1.961,1.1,2.6,2.6,0,0,1,.892-.8,2.634,2.634,0,0,1,1.3-.3q2.26,0,2.3,2.393V68h-1.174V63.468a1.577,1.577,0,0,0-.336-1.1,1.482,1.482,0,0,0-1.13-.365,1.557,1.557,0,0,0-1.085.39,1.584,1.584,0,0,0-.5,1.051V68h-1.181V63.5a1.31,1.31,0,0,0-1.466-1.5,1.571,1.571,0,0,0-1.581.984V68h-1.174V61.132Zm16.1,3.51a4.084,4.084,0,0,1-.724,2.53,2.312,2.312,0,0,1-1.942.955,2.394,2.394,0,0,1-2.012-.92l-.057.793h-1.079V58.25h1.174v3.637A2.381,2.381,0,0,1,117.4,61a2.326,2.326,0,0,1,1.965.946,4.206,4.206,0,0,1,.714,2.59Zm-1.174-.133a3.173,3.173,0,0,0-.463-1.854A1.534,1.534,0,0,0,117.108,62a1.724,1.724,0,0,0-1.669,1.079v2.971a1.772,1.772,0,0,0,1.682,1.079,1.526,1.526,0,0,0,1.314-.654A3.375,3.375,0,0,0,118.9,64.509Zm5.973-2.323a3.519,3.519,0,0,0-.578-.044,1.547,1.547,0,0,0-1.568.984V68h-1.174V61.132H122.7l.019.793a1.829,1.829,0,0,1,1.638-.92,1.2,1.2,0,0,1,.521.089Zm3.929,5.941a3,3,0,0,1-2.272-.917,3.4,3.4,0,0,1-.876-2.453v-.216a4.121,4.121,0,0,1,.39-1.825,3.045,3.045,0,0,1,1.092-1.257,2.745,2.745,0,0,1,1.52-.454,2.572,2.572,0,0,1,2.082.882,3.82,3.82,0,0,1,.743,2.526V64.9h-4.653a2.441,2.441,0,0,0,.594,1.641,1.866,1.866,0,0,0,1.444.625,2.045,2.045,0,0,0,1.054-.254,2.648,2.648,0,0,0,.755-.673l.717.559A2.884,2.884,0,0,1,128.807,68.127Zm-.146-6.157a1.566,1.566,0,0,0-1.193.517,2.515,2.515,0,0,0-.6,1.45h3.44v-.089a2.237,2.237,0,0,0-.482-1.387A1.475,1.475,0,0,0,128.661,61.97Zm11.458-3.212h1.225V65.3a2.711,2.711,0,0,1-.8,2.076,2.974,2.974,0,0,1-2.123.749,3.056,3.056,0,0,1-2.146-.7,2.544,2.544,0,0,1-.768-1.974h1.219a1.532,1.532,0,0,0,1.695,1.682,1.634,1.634,0,0,0,1.222-.476,1.844,1.844,0,0,0,.473-1.333ZM147.475,68a2.467,2.467,0,0,1-.165-.724,2.62,2.62,0,0,1-1.955.851,2.424,2.424,0,0,1-1.666-.574,1.859,1.859,0,0,1-.651-1.457,1.942,1.942,0,0,1,.816-1.666,3.846,3.846,0,0,1,2.295-.594h1.143V63.3a1.319,1.319,0,0,0-.368-.981,1.48,1.48,0,0,0-1.085-.365,1.712,1.712,0,0,0-1.054.317.935.935,0,0,0-.425.768h-1.181a1.621,1.621,0,0,1,.365-.993,2.491,2.491,0,0,1,.99-.759A3.331,3.331,0,0,1,145.907,61a2.715,2.715,0,0,1,1.86.594,2.141,2.141,0,0,1,.7,1.635v3.161a3.865,3.865,0,0,0,.241,1.5V68Zm-1.949-.9a2.064,2.064,0,0,0,1.047-.286,1.728,1.728,0,0,0,.717-.743V64.667h-.92q-2.158,0-2.158,1.263a1.069,1.069,0,0,0,.368.863A1.415,1.415,0,0,0,145.526,67.1Zm6.951-.7,1.7-5.275h1.2L152.915,68h-.9l-2.488-6.868h1.2ZM160.653,68a2.467,2.467,0,0,1-.165-.724,2.62,2.62,0,0,1-1.955.851,2.424,2.424,0,0,1-1.666-.574,1.859,1.859,0,0,1-.651-1.457,1.942,1.942,0,0,1,.816-1.666,3.846,3.846,0,0,1,2.295-.594h1.143V63.3a1.319,1.319,0,0,0-.368-.981,1.48,1.48,0,0,0-1.085-.365,1.712,1.712,0,0,0-1.054.317.935.935,0,0,0-.425.768h-1.181a1.621,1.621,0,0,1,.365-.993,2.491,2.491,0,0,1,.99-.759A3.331,3.331,0,0,1,159.085,61a2.715,2.715,0,0,1,1.86.594,2.141,2.141,0,0,1,.7,1.635v3.161a3.865,3.865,0,0,0,.241,1.5V68Zm-1.949-.9a2.064,2.064,0,0,0,1.047-.286,1.728,1.728,0,0,0,.717-.743V64.667h-.92q-2.158,0-2.158,1.263a1.069,1.069,0,0,0,.368.863A1.415,1.415,0,0,0,158.7,67.1Zm7.687-3.225a5.731,5.731,0,0,1-2.282-1.108,2.116,2.116,0,0,1-.714-1.622,2.236,2.236,0,0,1,.873-1.806,3.469,3.469,0,0,1,2.269-.714,3.786,3.786,0,0,1,1.7.368,2.792,2.792,0,0,1,1.155,1.016,2.6,2.6,0,0,1,.409,1.416h-1.225a1.69,1.69,0,0,0-.533-1.322,2.168,2.168,0,0,0-1.5-.481,2.22,2.22,0,0,0-1.406.4,1.326,1.326,0,0,0-.5,1.1,1.193,1.193,0,0,0,.479.957,4.7,4.7,0,0,0,1.631.715,7.569,7.569,0,0,1,1.8.715,2.736,2.736,0,0,1,.965.911,2.325,2.325,0,0,1,.314,1.225,2.159,2.159,0,0,1-.876,1.8,3.735,3.735,0,0,1-2.342.676,4.344,4.344,0,0,1-1.777-.365,2.991,2.991,0,0,1-1.273-1,2.44,2.44,0,0,1-.448-1.441h1.225a1.592,1.592,0,0,0,.619,1.323,2.606,2.606,0,0,0,1.654.486,2.4,2.4,0,0,0,1.479-.394,1.278,1.278,0,0,0,.514-1.073,1.255,1.255,0,0,0-.476-1.051A5.489,5.489,0,0,0,166.391,63.88Zm7.56,3.288a1.692,1.692,0,0,0,1.1-.381,1.34,1.34,0,0,0,.521-.952h1.111a2.13,2.13,0,0,1-.406,1.124,2.676,2.676,0,0,1-1,.851,2.885,2.885,0,0,1-1.323.317,2.829,2.829,0,0,1-2.231-.936,3.729,3.729,0,0,1-.828-2.561v-.2a4.135,4.135,0,0,1,.368-1.784,2.8,2.8,0,0,1,1.057-1.212A3,3,0,0,1,173.945,61a2.755,2.755,0,0,1,1.92.692,2.473,2.473,0,0,1,.816,1.8H175.57a1.618,1.618,0,0,0-.5-1.095,1.57,1.57,0,0,0-1.12-.428,1.644,1.644,0,0,0-1.387.644,3.026,3.026,0,0,0-.492,1.863V64.7a2.965,2.965,0,0,0,.489,1.828A1.651,1.651,0,0,0,173.951,67.168Zm7.37-4.983a3.519,3.519,0,0,0-.578-.044,1.547,1.547,0,0,0-1.568.984V68H178V61.132h1.143l.019.793A1.829,1.829,0,0,1,180.8,61a1.2,1.2,0,0,1,.521.089ZM183.676,68H182.5V61.132h1.174Zm-1.27-8.69a.7.7,0,0,1,.175-.482.655.655,0,0,1,.517-.2.666.666,0,0,1,.521.2.694.694,0,0,1,.178.482.671.671,0,0,1-.178.476.678.678,0,0,1-.521.19.667.667,0,0,1-.517-.19A.678.678,0,0,1,182.406,59.31Zm8.95,5.332a4.112,4.112,0,0,1-.717,2.526,2.3,2.3,0,0,1-1.942.958,2.519,2.519,0,0,1-1.968-.793v3.307h-1.174V61.132h1.073l.057.762A2.419,2.419,0,0,1,188.678,61a2.342,2.342,0,0,1,1.958.933,4.157,4.157,0,0,1,.72,2.6Zm-1.174-.133a3.035,3.035,0,0,0-.5-1.834A1.6,1.6,0,0,0,188.329,62a1.726,1.726,0,0,0-1.6.946v3.282a1.73,1.73,0,0,0,1.612.939,1.587,1.587,0,0,0,1.343-.67A3.312,3.312,0,0,0,190.182,64.509Zm4.259-5.04v1.663h1.282v.908h-1.282V66.3a.953.953,0,0,0,.171.62.721.721,0,0,0,.584.207,2.843,2.843,0,0,0,.559-.076V68a3.424,3.424,0,0,1-.9.126,1.462,1.462,0,0,1-1.187-.476,2.045,2.045,0,0,1-.4-1.352V62.04h-1.25v-.908h1.25V59.469Z" transform="translate(-1305 -7146)" fill="#12263f"/>
    <path id="Trazado_185420" data-name="Trazado 185420" d="M6.233,9.995H2.691L2.26,12.47H6.424L6.157,14H.133L1.739,4.758H7.75L7.478,6.3H3.333L2.945,8.5H6.5Zm8.588.92a3.456,3.456,0,0,1-.654,1.7,3.554,3.554,0,0,1-1.422,1.136,4.33,4.33,0,0,1-1.892.378A3.2,3.2,0,0,1,9.261,13.7a2.8,2.8,0,0,1-1.07-1.168,4.316,4.316,0,0,1-.441-1.761,8.64,8.64,0,0,1,.162-1.942A6.157,6.157,0,0,1,8.649,6.77a4.6,4.6,0,0,1,1.26-1.428,3.8,3.8,0,0,1,2.349-.711,3.119,3.119,0,0,1,2.276.885,3.562,3.562,0,0,1,.924,2.39L13.6,7.9a1.943,1.943,0,0,0-.349-1.282,1.424,1.424,0,0,0-1.085-.432,1.884,1.884,0,0,0-1.565.679,4.085,4.085,0,0,0-.822,2.076A11.5,11.5,0,0,0,9.6,10.928a1.978,1.978,0,0,0,.375,1.235,1.254,1.254,0,0,0,.958.416,1.914,1.914,0,0,0,1.362-.4,2.133,2.133,0,0,0,.676-1.247ZM19.6,4.758l1.136,6.684,3.447-6.684h2.476L25.048,14H23.182l.457-2.634.9-4.113L21,14H19.722L18.484,7.018l-.6,4.551L17.462,14H15.6l1.606-9.242ZM32.145,12.1H28.92L27.968,14h-2.05l4.938-9.242h1.72L34.334,14h-1.9Zm-2.463-1.542H31.91l-.521-3.44Zm9.718.229H35.826V9.3H39.4ZM47.131,14H40.8V12.743l2.99-3.187A7.376,7.376,0,0,0,44.7,8.382a1.887,1.887,0,0,0,.3-.952,1.412,1.412,0,0,0-.311-.968,1.123,1.123,0,0,0-.889-.352,1.211,1.211,0,0,0-.981.428,1.7,1.7,0,0,0-.359,1.127H40.612a3.03,3.03,0,0,1,.4-1.542,2.841,2.841,0,0,1,1.139-1.095,3.463,3.463,0,0,1,1.669-.4,3.279,3.279,0,0,1,2.219.686,2.425,2.425,0,0,1,.79,1.936,3.108,3.108,0,0,1-.355,1.4,7.761,7.761,0,0,1-1.219,1.657l-2.1,2.215h3.974Zm6.1-9.337V6.173h-.178a3.117,3.117,0,0,0-2,.647,2.631,2.631,0,0,0-.911,1.746A2.5,2.5,0,0,1,52,7.817a2.354,2.354,0,0,1,1.917.863,3.461,3.461,0,0,1,.711,2.272,3.4,3.4,0,0,1-.39,1.631,2.8,2.8,0,0,1-1.1,1.136,3.209,3.209,0,0,1-1.615.406,3,3,0,0,1-2.358-1.016,3.942,3.942,0,0,1-.9-2.71v-.66a5.933,5.933,0,0,1,.568-2.656A4.166,4.166,0,0,1,50.461,5.3a4.78,4.78,0,0,1,2.466-.638ZM51.441,9.3a1.466,1.466,0,0,0-.806.231,1.393,1.393,0,0,0-.533.611V10.7a2.47,2.47,0,0,0,.362,1.435,1.169,1.169,0,0,0,1.016.516,1.156,1.156,0,0,0,.955-.466,1.9,1.9,0,0,0,.365-1.207,1.9,1.9,0,0,0-.368-1.216A1.2,1.2,0,0,0,51.441,9.3ZM62.048,14H55.713V12.743L58.7,9.557a7.376,7.376,0,0,0,.911-1.174,1.887,1.887,0,0,0,.3-.952,1.412,1.412,0,0,0-.311-.968,1.123,1.123,0,0,0-.889-.352,1.211,1.211,0,0,0-.981.428,1.7,1.7,0,0,0-.359,1.127H55.529a3.03,3.03,0,0,1,.4-1.542,2.841,2.841,0,0,1,1.139-1.095,3.463,3.463,0,0,1,1.669-.4,3.279,3.279,0,0,1,2.219.686,2.425,2.425,0,0,1,.79,1.936,3.108,3.108,0,0,1-.355,1.4,7.761,7.761,0,0,1-1.219,1.657l-2.1,2.215h3.974ZM72.167,9.995H68.51V12.47H72.8V14h-6.2V4.758h6.183V6.3H68.51V8.5h3.656Zm1.346.521a4.139,4.139,0,0,1,.72-2.558A2.338,2.338,0,0,1,76.2,7a2.1,2.1,0,0,1,1.657.749V4.25H79.7V14H78.044l-.089-.73a2.159,2.159,0,0,1-1.765.857,2.331,2.331,0,0,1-1.946-.955A4.272,4.272,0,0,1,73.512,10.515Zm1.834.137a2.711,2.711,0,0,0,.336,1.481,1.1,1.1,0,0,0,.978.515,1.228,1.228,0,0,0,1.2-.718V9.215A1.21,1.21,0,0,0,76.673,8.5Q75.347,8.5,75.347,10.652ZM81.218,13.1a.924.924,0,0,1,.3-.711,1.147,1.147,0,0,1,1.485,0,.924.924,0,0,1,.3.711.911.911,0,0,1-.292.7,1.166,1.166,0,0,1-1.492,0A.911.911,0,0,1,81.218,13.1Zm8.062.9H87.445V6.929l-2.19.679V6.116l3.828-1.371h.2Zm12-4.005H97.621V12.47h4.291V14h-6.2V4.758H101.9V6.3H97.621V8.5h3.656Zm6.544,1.581a.977.977,0,0,0-.381-.828,5,5,0,0,0-1.371-.609,9.72,9.72,0,0,1-1.568-.632,2.562,2.562,0,0,1-1.574-2.292,2.232,2.232,0,0,1,.422-1.336,2.753,2.753,0,0,1,1.212-.917,4.563,4.563,0,0,1,1.774-.33,4.154,4.154,0,0,1,1.765.359A2.81,2.81,0,0,1,109.3,6a2.649,2.649,0,0,1,.428,1.485h-1.9a1.246,1.246,0,0,0-.4-.987,1.644,1.644,0,0,0-1.124-.352,1.756,1.756,0,0,0-1.085.3.931.931,0,0,0-.387.778.892.892,0,0,0,.454.755,5.128,5.128,0,0,0,1.336.571,5.773,5.773,0,0,1,2.368,1.212,2.415,2.415,0,0,1,.743,1.8,2.224,2.224,0,0,1-.908,1.882,3.974,3.974,0,0,1-2.444.682,4.719,4.719,0,0,1-1.942-.39,3.074,3.074,0,0,1-1.336-1.07,2.739,2.739,0,0,1-.46-1.574h1.911q0,1.53,1.828,1.53a1.778,1.778,0,0,0,1.06-.276A.9.9,0,0,0,107.821,11.575ZM115.28,14h-1.834V6.929l-2.19.679V6.116l3.828-1.371h.2Z" transform="translate(-1104 -7278)" fill="#12263f"/>
    <path id="Trazado_185421" data-name="Trazado 185421" d="M6.386,9.995H2.729V12.47H7.021V14H.825V4.758H7.008V6.3H2.729V8.5H6.386Zm6.544,1.581a.977.977,0,0,0-.381-.828,5,5,0,0,0-1.371-.609A9.72,9.72,0,0,1,9.61,9.506,2.562,2.562,0,0,1,8.036,7.214a2.232,2.232,0,0,1,.422-1.336,2.753,2.753,0,0,1,1.212-.917,4.563,4.563,0,0,1,1.774-.33,4.154,4.154,0,0,1,1.765.359A2.81,2.81,0,0,1,14.412,6a2.649,2.649,0,0,1,.428,1.485h-1.9a1.246,1.246,0,0,0-.4-.987,1.644,1.644,0,0,0-1.124-.352,1.756,1.756,0,0,0-1.085.3.931.931,0,0,0-.387.778.892.892,0,0,0,.454.755,5.128,5.128,0,0,0,1.336.571A5.773,5.773,0,0,1,14.1,9.76a2.415,2.415,0,0,1,.743,1.8,2.224,2.224,0,0,1-.908,1.882,3.974,3.974,0,0,1-2.444.682,4.719,4.719,0,0,1-1.942-.39,3.074,3.074,0,0,1-1.336-1.07,2.739,2.739,0,0,1-.46-1.574H9.661q0,1.53,1.828,1.53a1.778,1.778,0,0,0,1.06-.276A.9.9,0,0,0,12.93,11.575ZM22.268,14H15.933V12.743l2.99-3.187a7.376,7.376,0,0,0,.911-1.174,1.887,1.887,0,0,0,.3-.952,1.412,1.412,0,0,0-.311-.968,1.123,1.123,0,0,0-.889-.352,1.211,1.211,0,0,0-.981.428,1.7,1.7,0,0,0-.359,1.127H15.749a3.03,3.03,0,0,1,.4-1.542,2.841,2.841,0,0,1,1.139-1.095,3.463,3.463,0,0,1,1.669-.4,3.279,3.279,0,0,1,2.219.686,2.425,2.425,0,0,1,.79,1.936,3.108,3.108,0,0,1-.355,1.4A7.76,7.76,0,0,1,20.4,10.306l-2.1,2.215h3.974Z" transform="translate(-879 -7146)" fill="#12263f"/>
    <path id="Trazado_185424" data-name="Trazado 185424" d="M11.221,9.995H7.564V12.47h4.291V14H5.66V4.758h6.183V6.3H7.564V8.5h3.656Zm6.544,1.581a.977.977,0,0,0-.381-.828,5,5,0,0,0-1.371-.609,9.72,9.72,0,0,1-1.568-.632,2.562,2.562,0,0,1-1.574-2.292,2.232,2.232,0,0,1,.422-1.336,2.753,2.753,0,0,1,1.212-.917,4.563,4.563,0,0,1,1.774-.33,4.154,4.154,0,0,1,1.765.359A2.81,2.81,0,0,1,19.247,6a2.649,2.649,0,0,1,.428,1.485h-1.9a1.246,1.246,0,0,0-.4-.987,1.644,1.644,0,0,0-1.124-.352,1.756,1.756,0,0,0-1.085.3.931.931,0,0,0-.387.778.892.892,0,0,0,.454.755,5.128,5.128,0,0,0,1.336.571A5.773,5.773,0,0,1,18.933,9.76a2.415,2.415,0,0,1,.743,1.8,2.224,2.224,0,0,1-.908,1.882,3.974,3.974,0,0,1-2.444.682,4.719,4.719,0,0,1-1.942-.39,3.074,3.074,0,0,1-1.336-1.07,2.739,2.739,0,0,1-.46-1.574H14.5q0,1.53,1.828,1.53a1.778,1.778,0,0,0,1.06-.276A.9.9,0,0,0,17.765,11.575Zm4.869-3.009h.978a1.377,1.377,0,0,0,1.035-.349,1.279,1.279,0,0,0,.336-.927,1.131,1.131,0,0,0-.333-.87,1.292,1.292,0,0,0-.917-.311,1.354,1.354,0,0,0-.882.289.923.923,0,0,0-.355.752H20.66a2.256,2.256,0,0,1,.39-1.3,2.6,2.6,0,0,1,1.092-.9,3.644,3.644,0,0,1,1.546-.324,3.456,3.456,0,0,1,2.3.7,2.393,2.393,0,0,1,.832,1.933,1.945,1.945,0,0,1-.387,1.168,2.516,2.516,0,0,1-1.016.819,2.3,2.3,0,0,1,1.165.838,2.273,2.273,0,0,1,.384,1.32,2.433,2.433,0,0,1-.9,1.974,3.611,3.611,0,0,1-2.377.743,3.424,3.424,0,0,1-2.263-.73,2.384,2.384,0,0,1-.879-1.93H22.38a1.063,1.063,0,0,0,.39.851,1.629,1.629,0,0,0,1.987-.016,1.194,1.194,0,0,0,.371-.917Q25.128,10,23.6,10h-.971ZM33.26,7.132l.057.768A2.414,2.414,0,0,1,35.291,7a1.832,1.832,0,0,1,1.822,1.047A2.358,2.358,0,0,1,39.176,7a2.049,2.049,0,0,1,1.663.651,2.991,2.991,0,0,1,.546,1.958V14H39.544V9.62a1.308,1.308,0,0,0-.229-.854,1.013,1.013,0,0,0-.806-.27,1.145,1.145,0,0,0-1.143.787L37.373,14H35.539V9.626a1.292,1.292,0,0,0-.235-.863,1.023,1.023,0,0,0-.8-.267,1.189,1.189,0,0,0-1.13.647V14H31.54V7.132ZM42.508,10.5A4.073,4.073,0,0,1,42.9,8.681a2.881,2.881,0,0,1,1.133-1.238A3.306,3.306,0,0,1,45.752,7a3.128,3.128,0,0,1,2.269.851A3.414,3.414,0,0,1,49,10.166l.013.47a3.59,3.59,0,0,1-.882,2.536,3.42,3.42,0,0,1-4.739,0,3.653,3.653,0,0,1-.885-2.59Zm1.834.13a2.567,2.567,0,0,0,.368,1.5,1.323,1.323,0,0,0,2.095.006A2.809,2.809,0,0,0,47.18,10.5a2.542,2.542,0,0,0-.375-1.488,1.217,1.217,0,0,0-1.054-.528,1.2,1.2,0,0,0-1.041.524A2.857,2.857,0,0,0,44.343,10.633Zm5.516-.118a4.139,4.139,0,0,1,.72-2.558A2.338,2.338,0,0,1,52.55,7a2.1,2.1,0,0,1,1.657.749V4.25h1.841V14H54.391l-.089-.73a2.159,2.159,0,0,1-1.765.857,2.331,2.331,0,0,1-1.946-.955A4.272,4.272,0,0,1,49.859,10.515Zm1.834.137a2.711,2.711,0,0,0,.336,1.481,1.1,1.1,0,0,0,.978.515,1.227,1.227,0,0,0,1.2-.718V9.215A1.21,1.21,0,0,0,53.02,8.5Q51.693,8.5,51.693,10.652Zm8.938,3.475a3.372,3.372,0,0,1-2.46-.927,3.294,3.294,0,0,1-.949-2.469v-.178a4.149,4.149,0,0,1,.4-1.85,2.935,2.935,0,0,1,1.133-1.257A3.18,3.18,0,0,1,60.428,7a2.85,2.85,0,0,1,2.219.889,3.611,3.611,0,0,1,.809,2.52v.749H59.082a1.7,1.7,0,0,0,.536,1.079,1.621,1.621,0,0,0,1.133.406,1.98,1.98,0,0,0,1.657-.768l.9,1.009a2.754,2.754,0,0,1-1.117.911A3.665,3.665,0,0,1,60.631,14.127Zm-.209-5.643a1.146,1.146,0,0,0-.885.37A1.915,1.915,0,0,0,59.1,9.912h2.552V9.765a1.366,1.366,0,0,0-.33-.947A1.183,1.183,0,0,0,60.421,8.484Zm7.935.368A4.984,4.984,0,0,0,67.7,8.8a1.344,1.344,0,0,0-1.365.7V14H64.5V7.132h1.733l.051.819A1.7,1.7,0,0,1,67.81,7a1.922,1.922,0,0,1,.571.083Zm2.571-1.72.057.793A2.4,2.4,0,0,1,72.958,7a1.993,1.993,0,0,1,1.625.641,2.991,2.991,0,0,1,.546,1.917V14H73.294V9.607a1.19,1.19,0,0,0-.254-.847A1.137,1.137,0,0,0,72.2,8.5a1.262,1.262,0,0,0-1.162.66V14H69.2V7.132ZM76.233,10.5a4.073,4.073,0,0,1,.394-1.822A2.881,2.881,0,0,1,77.76,7.443,3.306,3.306,0,0,1,79.477,7a3.127,3.127,0,0,1,2.269.851,3.414,3.414,0,0,1,.981,2.311l.013.47a3.59,3.59,0,0,1-.882,2.536,3.42,3.42,0,0,1-4.739,0,3.653,3.653,0,0,1-.885-2.59Zm1.834.13a2.567,2.567,0,0,0,.368,1.5,1.323,1.323,0,0,0,2.095.006,2.809,2.809,0,0,0,.375-1.637,2.542,2.542,0,0,0-.375-1.488,1.217,1.217,0,0,0-1.054-.528,1.2,1.2,0,0,0-1.041.524A2.857,2.857,0,0,0,78.068,10.633ZM15.188,22.758h1.9v6.4a3.06,3.06,0,0,1-.39,1.558,2.649,2.649,0,0,1-1.1,1.044,3.441,3.441,0,0,1-1.606.368,3.27,3.27,0,0,1-2.285-.746,2.71,2.71,0,0,1-.819-2.111h1.917a1.486,1.486,0,0,0,.286,1,1.143,1.143,0,0,0,.9.324,1.091,1.091,0,0,0,.87-.375,1.582,1.582,0,0,0,.324-1.066Zm8.328,6.817a.977.977,0,0,0-.381-.828,5,5,0,0,0-1.371-.609,9.72,9.72,0,0,1-1.568-.632,2.562,2.562,0,0,1-1.574-2.292,2.232,2.232,0,0,1,.422-1.336,2.753,2.753,0,0,1,1.212-.917,4.563,4.563,0,0,1,1.774-.33,4.154,4.154,0,0,1,1.765.359A2.81,2.81,0,0,1,25,24a2.649,2.649,0,0,1,.428,1.485h-1.9a1.246,1.246,0,0,0-.4-.987A1.644,1.644,0,0,0,22,24.148a1.756,1.756,0,0,0-1.085.3.931.931,0,0,0-.387.778.892.892,0,0,0,.454.755,5.128,5.128,0,0,0,1.336.571,5.773,5.773,0,0,1,2.368,1.212,2.415,2.415,0,0,1,.743,1.8,2.224,2.224,0,0,1-.908,1.882,3.974,3.974,0,0,1-2.444.682,4.719,4.719,0,0,1-1.942-.39,3.074,3.074,0,0,1-1.336-1.07,2.739,2.739,0,0,1-.46-1.574h1.911q0,1.53,1.828,1.53a1.778,1.778,0,0,0,1.06-.276A.9.9,0,0,0,23.516,29.575Zm12.232-.99a4.925,4.925,0,0,1-.99,2.6,2.464,2.464,0,0,1-2.069.946,1.915,1.915,0,0,1-1.65-.876l-.26.743H29.146l1.688-9.75h1.8l-.692,3.51A2.14,2.14,0,0,1,33.615,25a1.938,1.938,0,0,1,1.565.714,3.16,3.16,0,0,1,.606,1.939A7.42,7.42,0,0,1,35.748,28.585Zm-1.777-.134a5.325,5.325,0,0,0,.038-.84q-.07-1.108-.914-1.127a1.49,1.49,0,0,0-1.314.719l-.5,2.738a1.022,1.022,0,0,0,1.028.713q1.32.038,1.619-1.923ZM40.28,32a1.853,1.853,0,0,1-.07-.622,2.326,2.326,0,0,1-1.752.749,2.108,2.108,0,0,1-1.495-.587,1.776,1.776,0,0,1-.555-1.419,2.053,2.053,0,0,1,.943-1.723,4.279,4.279,0,0,1,2.409-.6l.838.013.089-.413a1.433,1.433,0,0,0,.019-.4.687.687,0,0,0-.225-.467.776.776,0,0,0-.511-.175,1.093,1.093,0,0,0-.711.206,1,1,0,0,0-.375.632l-1.8.006a2,2,0,0,1,.9-1.6,3.5,3.5,0,0,1,2.123-.6,2.533,2.533,0,0,1,1.828.7,2.033,2.033,0,0,1,.552,1.723l-.527,3.288-.032.406a1.96,1.96,0,0,0,.108.762L42.039,32ZM38.9,30.737a1.639,1.639,0,0,0,1.352-.673l.222-1.187-.622-.006a1.738,1.738,0,0,0-1.428.6,1.05,1.05,0,0,0-.2.514.609.609,0,0,0,.143.543A.724.724,0,0,0,38.9,30.737Zm8.208-.673q.1-.508-.7-.736l-.578-.146q-2.05-.565-1.993-1.993A1.972,1.972,0,0,1,44.7,25.6a3.2,3.2,0,0,1,2-.6,2.873,2.873,0,0,1,1.879.616,2.028,2.028,0,0,1,.73,1.606l-1.777-.006a.783.783,0,0,0-.876-.9,1.261,1.261,0,0,0-.727.209.862.862,0,0,0-.378.565q-.1.508.768.717l.254.057a5.107,5.107,0,0,1,1.339.479,2.021,2.021,0,0,1,.714.67,1.657,1.657,0,0,1,.232.958,1.829,1.829,0,0,1-.422,1.143,2.584,2.584,0,0,1-1.1.755,3.848,3.848,0,0,1-1.476.248,2.9,2.9,0,0,1-1.9-.657,2.118,2.118,0,0,1-.774-1.666l1.688.013a.928.928,0,0,0,1.054,1,1.5,1.5,0,0,0,.816-.2A.8.8,0,0,0,47.11,30.064Zm5.827,2.063a2.988,2.988,0,0,1-1.6-.441A2.675,2.675,0,0,1,50.3,30.492a3.326,3.326,0,0,1-.267-1.673l.019-.254a4.44,4.44,0,0,1,.584-1.841A3.527,3.527,0,0,1,51.9,25.433,3.11,3.11,0,0,1,53.6,25a2.376,2.376,0,0,1,2.009.976,3.345,3.345,0,0,1,.517,2.406l-.1.782H51.814a1.474,1.474,0,0,0,.324,1.066,1.236,1.236,0,0,0,.952.413,2.2,2.2,0,0,0,1.714-.762l.819,1.016a2.547,2.547,0,0,1-1.117.911A3.653,3.653,0,0,1,52.938,32.127Zm.571-5.643a1.272,1.272,0,0,0-.879.311,2.733,2.733,0,0,0-.689,1.124H54.4l.038-.165a1.682,1.682,0,0,0,.006-.482.921.921,0,0,0-.311-.574A.975.975,0,0,0,53.509,26.484ZM58.447,32h-1.8l1.695-9.75h1.8Zm3.409,0h-1.8l1.193-6.868h1.8Zm-.4-8.614a.894.894,0,0,1,.279-.7,1.075,1.075,0,0,1,1.409-.032.89.89,0,0,1,.311.673.919.919,0,0,1-.263.686.987.987,0,0,1-.72.3,1,1,0,0,1-.7-.241A.886.886,0,0,1,61.456,23.386ZM66.2,25.125l-.152.813a2.471,2.471,0,0,1,2-.933,1.648,1.648,0,0,1,1.435.711,2.865,2.865,0,0,1,.336,1.917L69.1,32h-1.79l.736-4.386a2.054,2.054,0,0,0,.013-.451.727.727,0,0,0-.812-.667,1.541,1.541,0,0,0-1.263.654L65.125,32h-1.79l1.193-6.868Zm7.56,7a2.988,2.988,0,0,1-1.6-.441,2.675,2.675,0,0,1-1.038-1.193,3.326,3.326,0,0,1-.267-1.673l.019-.254a4.44,4.44,0,0,1,.584-1.841,3.527,3.527,0,0,1,1.257-1.292,3.11,3.11,0,0,1,1.7-.428,2.376,2.376,0,0,1,2.009.976,3.345,3.345,0,0,1,.517,2.406l-.1.782H72.641a1.474,1.474,0,0,0,.324,1.066,1.236,1.236,0,0,0,.952.413,2.2,2.2,0,0,0,1.714-.762l.819,1.016a2.547,2.547,0,0,1-1.117.911A3.653,3.653,0,0,1,73.764,32.127Zm.571-5.643a1.272,1.272,0,0,0-.879.311,2.733,2.733,0,0,0-.689,1.124H75.23l.038-.165a1.683,1.683,0,0,0,.006-.482.921.921,0,0,0-.311-.574A.975.975,0,0,0,74.335,26.484Z" transform="translate(-726 -7288)" fill="#12263f"/>
    <path id="Trazado_185425" data-name="Trazado 185425" d="M37.189,12.1H33.85L33.215,14H31.19l3.44-9.242H36.4L39.855,14H37.83Zm-2.825-1.542h2.311L35.513,7.094ZM42.54,7.132v7.243a2.457,2.457,0,0,1-.6,1.768,2.292,2.292,0,0,1-1.739.632,3.73,3.73,0,0,1-.908-.108V15.212a3.443,3.443,0,0,0,.578.057q.832,0,.832-.882V7.132ZM40.553,5.354a.9.9,0,0,1,.276-.679,1.194,1.194,0,0,1,1.5,0,.9.9,0,0,1,.276.679.9.9,0,0,1-.282.686,1.177,1.177,0,0,1-1.492,0A.9.9,0,0,1,40.553,5.354ZM47.955,14a2.037,2.037,0,0,1-.184-.616,2.22,2.22,0,0,1-1.733.743,2.439,2.439,0,0,1-1.673-.584A1.878,1.878,0,0,1,43.7,12.07a1.941,1.941,0,0,1,.809-1.676A3.994,3.994,0,0,1,46.85,9.8h.844V9.411a1.132,1.132,0,0,0-.244-.762.961.961,0,0,0-.771-.286,1.093,1.093,0,0,0-.727.222.755.755,0,0,0-.263.609H43.854a1.843,1.843,0,0,1,.368-1.1,2.434,2.434,0,0,1,1.041-.8A3.794,3.794,0,0,1,46.774,7a3,3,0,0,1,2.015.638,2.232,2.232,0,0,1,.746,1.793v2.977a3.284,3.284,0,0,0,.273,1.479V14Zm-1.517-1.276a1.58,1.58,0,0,0,.749-.181,1.188,1.188,0,0,0,.508-.486V10.877h-.686q-1.377,0-1.466.952l-.006.108a.734.734,0,0,0,.241.565A.937.937,0,0,0,46.438,12.724ZM53.56,9.182l1.155-2.05h1.961L54.721,10.5,56.759,14H54.791l-1.225-2.158L52.347,14H50.373l2.038-3.5L50.462,7.132H52.43ZM15.924,28.617H14.407V32H12.5V22.758h3.434a3.882,3.882,0,0,1,2.526.73,2.519,2.519,0,0,1,.889,2.063,2.843,2.843,0,0,1-.409,1.577A2.792,2.792,0,0,1,17.7,28.134l2,3.777V32H17.657Zm-1.517-1.542h1.536a1.573,1.573,0,0,0,1.111-.365,1.3,1.3,0,0,0,.394-1.006,1.4,1.4,0,0,0-.371-1.028,1.543,1.543,0,0,0-1.139-.375h-1.53Zm9.433,5.053a3.372,3.372,0,0,1-2.46-.927,3.294,3.294,0,0,1-.949-2.469v-.178a4.149,4.149,0,0,1,.4-1.85,2.935,2.935,0,0,1,1.133-1.257A3.18,3.18,0,0,1,23.637,25a2.85,2.85,0,0,1,2.219.889,3.611,3.611,0,0,1,.809,2.52v.749H22.291a1.7,1.7,0,0,0,.536,1.079,1.621,1.621,0,0,0,1.133.406,1.98,1.98,0,0,0,1.657-.768l.9,1.009A2.754,2.754,0,0,1,25.4,31.8,3.665,3.665,0,0,1,23.84,32.127Zm-.209-5.643a1.146,1.146,0,0,0-.885.37,1.915,1.915,0,0,0-.435,1.058h2.552v-.147a1.366,1.366,0,0,0-.33-.947A1.183,1.183,0,0,0,23.63,26.484Zm6.563,3.275,1.276-4.627h1.917L31.07,32H29.318L27,25.132h1.917ZM33.812,28.5a4.073,4.073,0,0,1,.394-1.822,2.881,2.881,0,0,1,1.133-1.238A3.306,3.306,0,0,1,37.056,25a3.128,3.128,0,0,1,2.269.851,3.414,3.414,0,0,1,.981,2.311l.013.47a3.59,3.59,0,0,1-.882,2.536,3.42,3.42,0,0,1-4.739,0,3.653,3.653,0,0,1-.885-2.59Zm1.834.13a2.567,2.567,0,0,0,.368,1.5,1.323,1.323,0,0,0,2.095.006,2.809,2.809,0,0,0,.375-1.637,2.542,2.542,0,0,0-.375-1.488,1.217,1.217,0,0,0-1.054-.528,1.2,1.2,0,0,0-1.041.524A2.857,2.857,0,0,0,35.646,28.633ZM43.384,32H41.543V22.25h1.841Zm5.624-.7a2.3,2.3,0,0,1-1.879.825,2.17,2.17,0,0,1-1.685-.635,2.71,2.71,0,0,1-.594-1.86v-4.5h1.834v4.442q0,1.074.978,1.074A1.325,1.325,0,0,0,48.945,30V25.132h1.841V32H49.059Zm6.018-.654a1.2,1.2,0,0,0,.825-.279.979.979,0,0,0,.33-.743H57.9a2.353,2.353,0,0,1-.381,1.279,2.513,2.513,0,0,1-1.025.9,3.208,3.208,0,0,1-1.438.321,2.982,2.982,0,0,1-2.323-.936,3.705,3.705,0,0,1-.851-2.587v-.121a3.663,3.663,0,0,1,.844-2.533A2.947,2.947,0,0,1,55.045,25a2.889,2.889,0,0,1,2.066.733,2.6,2.6,0,0,1,.79,1.952h-1.72a1.261,1.261,0,0,0-.33-.871,1.227,1.227,0,0,0-1.806.132,2.708,2.708,0,0,0-.327,1.516v.191a2.742,2.742,0,0,0,.324,1.526A1.119,1.119,0,0,0,55.026,30.648ZM60.885,32H59.044V25.132h1.841Zm-1.949-8.646a.9.9,0,0,1,.276-.679,1.19,1.19,0,0,1,1.5,0,.969.969,0,0,1,0,1.365,1.177,1.177,0,0,1-1.492,0A.9.9,0,0,1,58.936,23.354ZM62.11,28.5a4.073,4.073,0,0,1,.394-1.822,2.881,2.881,0,0,1,1.133-1.238A3.306,3.306,0,0,1,65.354,25a3.127,3.127,0,0,1,2.269.851,3.414,3.414,0,0,1,.981,2.311l.013.47a3.59,3.59,0,0,1-.882,2.536,3.42,3.42,0,0,1-4.739,0,3.653,3.653,0,0,1-.885-2.59Zm1.834.13a2.567,2.567,0,0,0,.368,1.5,1.323,1.323,0,0,0,2.095.006,2.809,2.809,0,0,0,.375-1.637,2.542,2.542,0,0,0-.375-1.488,1.217,1.217,0,0,0-1.054-.528,1.2,1.2,0,0,0-1.041.524A2.857,2.857,0,0,0,63.944,28.633Zm1.771-6.383h2l-1.758,1.968H64.465Zm5.719,2.882.057.793A2.4,2.4,0,0,1,73.466,25a1.993,1.993,0,0,1,1.625.641,2.991,2.991,0,0,1,.546,1.917V32H73.8V27.607a1.19,1.19,0,0,0-.254-.847A1.137,1.137,0,0,0,72.7,26.5a1.262,1.262,0,0,0-1.162.66V32H69.708V25.132Z" transform="translate(-556 -7146)" fill="#12263f"/>
    <path id="Trazado_185428" data-name="Trazado 185428" d="M6.386,9.995H2.729V12.47H7.021V14H.825V4.758H7.008V6.3H2.729V8.5H6.386Zm6.544,1.581a.977.977,0,0,0-.381-.828,5,5,0,0,0-1.371-.609A9.72,9.72,0,0,1,9.61,9.506,2.562,2.562,0,0,1,8.036,7.214a2.232,2.232,0,0,1,.422-1.336,2.753,2.753,0,0,1,1.212-.917,4.563,4.563,0,0,1,1.774-.33,4.154,4.154,0,0,1,1.765.359A2.81,2.81,0,0,1,14.412,6a2.649,2.649,0,0,1,.428,1.485h-1.9a1.246,1.246,0,0,0-.4-.987,1.644,1.644,0,0,0-1.124-.352,1.756,1.756,0,0,0-1.085.3.931.931,0,0,0-.387.778.892.892,0,0,0,.454.755,5.128,5.128,0,0,0,1.336.571A5.773,5.773,0,0,1,14.1,9.76a2.415,2.415,0,0,1,.743,1.8,2.224,2.224,0,0,1-.908,1.882,3.974,3.974,0,0,1-2.444.682,4.719,4.719,0,0,1-1.942-.39,3.074,3.074,0,0,1-1.336-1.07,2.739,2.739,0,0,1-.46-1.574H9.661q0,1.53,1.828,1.53a1.778,1.778,0,0,0,1.06-.276A.9.9,0,0,0,12.93,11.575Zm8.43-1.054h1.047V12H21.36v2H19.525V12h-3.79l-.083-1.155,3.853-6.087H21.36Zm-3.878,0h2.044V7.259l-.121.209Zm12.765.1H28.729V14h-1.9V4.758h3.434a3.882,3.882,0,0,1,2.526.73,2.519,2.519,0,0,1,.889,2.063,2.843,2.843,0,0,1-.409,1.577,2.792,2.792,0,0,1-1.241,1.006l2,3.777V14H31.979ZM28.729,9.074h1.536a1.573,1.573,0,0,0,1.111-.365A1.3,1.3,0,0,0,31.77,7.7,1.4,1.4,0,0,0,31.4,6.675,1.543,1.543,0,0,0,30.259,6.3h-1.53ZM37.146,14h-1.9V4.758h1.9Zm3.669-3.256V14h-1.9V4.758h3.605a4.171,4.171,0,0,1,1.831.381,2.807,2.807,0,0,1,1.216,1.082,3.018,3.018,0,0,1,.425,1.6,2.654,2.654,0,0,1-.93,2.142,3.873,3.873,0,0,1-2.574.784Zm0-1.542h1.7a1.673,1.673,0,0,0,1.152-.355,1.293,1.293,0,0,0,.4-1.016,1.524,1.524,0,0,0-.4-1.1,1.494,1.494,0,0,0-1.1-.432H40.815Z" transform="translate(-369 -7273)" fill="#12263f"/>
    <path id="Trazado_185429" data-name="Trazado 185429" d="M6.386,9.995H2.729V12.47H7.021V14H.825V4.758H7.008V6.3H2.729V8.5H6.386Zm6.544,1.581a.977.977,0,0,0-.381-.828,5,5,0,0,0-1.371-.609A9.72,9.72,0,0,1,9.61,9.506,2.562,2.562,0,0,1,8.036,7.214a2.232,2.232,0,0,1,.422-1.336,2.753,2.753,0,0,1,1.212-.917,4.563,4.563,0,0,1,1.774-.33,4.154,4.154,0,0,1,1.765.359A2.81,2.81,0,0,1,14.412,6a2.649,2.649,0,0,1,.428,1.485h-1.9a1.246,1.246,0,0,0-.4-.987,1.644,1.644,0,0,0-1.124-.352,1.756,1.756,0,0,0-1.085.3.931.931,0,0,0-.387.778.892.892,0,0,0,.454.755,5.128,5.128,0,0,0,1.336.571A5.773,5.773,0,0,1,14.1,9.76a2.415,2.415,0,0,1,.743,1.8,2.224,2.224,0,0,1-.908,1.882,3.974,3.974,0,0,1-2.444.682,4.719,4.719,0,0,1-1.942-.39,3.074,3.074,0,0,1-1.336-1.07,2.739,2.739,0,0,1-.46-1.574H9.661q0,1.53,1.828,1.53a1.778,1.778,0,0,0,1.06-.276A.9.9,0,0,0,12.93,11.575Zm3.275-2.12.533-4.7h5.18v1.53H18.243l-.229,1.987a2.908,2.908,0,0,1,1.39-.349,2.664,2.664,0,0,1,2.069.819,3.271,3.271,0,0,1,.749,2.292,3.351,3.351,0,0,1-.378,1.6,2.666,2.666,0,0,1-1.082,1.1,3.379,3.379,0,0,1-1.663.39,3.588,3.588,0,0,1-1.555-.34,2.758,2.758,0,0,1-1.133-.955,2.6,2.6,0,0,1-.441-1.4h1.815a1.356,1.356,0,0,0,.4.9,1.278,1.278,0,0,0,.9.321,1.128,1.128,0,0,0,.958-.448,2.073,2.073,0,0,0,.336-1.266A1.714,1.714,0,0,0,20,9.728a1.421,1.421,0,0,0-1.1-.419,1.588,1.588,0,0,0-1.06.343l-.178.165Z" transform="translate(-175 -7137)" fill="#12263f"/>
  </g>
</svg>
